M48
;Layer_Color=9474304
;FILE_FORMAT=2:5
INCH,TZ
;TYPE=PLATED
T1F00S00C0.02800
T2F00S00C0.03000
T3F00S00C0.03543
%
T01
X370800Y246300
X301300Y256700
X218900Y225900
X344000Y340000
X370800Y349700
X412800Y379700
X345900Y423400
X329500Y416500
X516200Y379700
T02
X548425Y181488
X535630Y202157
Y212000
Y221843
X548425Y242512
X565157Y251370
X575000
X584843
X601575Y242512
Y181488
X266575Y182988
X213425
X200630Y203657
Y213500
Y223343
X213425Y244012
X230157Y252870
X240000
X249843
X266575Y244012
X148500Y407000
Y416843
Y426685
X205500
Y416843
Y407000
X269500
Y416843
Y426685
X506500Y349500
X526185
T03
X349500Y165000
Y175000
Y185000
Y195000
Y205000
Y215000
Y225000
Y235000
Y245000
Y255000
Y265000
Y275000
Y285000
Y295000
Y305000
X449500
Y295000
Y285000
Y275000
Y265000
Y255000
Y245000
Y235000
Y225000
Y215000
Y205000
Y195000
Y185000
Y175000
Y165000
Y315000
Y325000
Y335000
Y345000
X349500
Y335000
Y325000
Y315000
M30
