G04*
G04 #@! TF.GenerationSoftware,Altium Limited,Altium Designer,21.4.1 (30)*
G04*
G04 Layer_Color=128*
%FSLAX25Y25*%
%MOIN*%
G70*
G04*
G04 #@! TF.SameCoordinates,E3ABAEE7-5D4E-4445-B66A-D27F58F8AFC5*
G04*
G04*
G04 #@! TF.FilePolarity,Positive*
G04*
G01*
G75*
%ADD39C,0.00200*%
D39*
X347728Y165000D02*
X351272D01*
X349500Y163228D02*
Y166772D01*
X347728Y175000D02*
X351272D01*
X349500Y173228D02*
Y176772D01*
X347728Y185000D02*
X351272D01*
X349500Y183228D02*
Y186772D01*
X347728Y195000D02*
X351272D01*
X349500Y193228D02*
Y196772D01*
X347728Y205000D02*
X351272D01*
X349500Y203228D02*
Y206772D01*
X347728Y215000D02*
X351272D01*
X349500Y213228D02*
Y216772D01*
X347728Y225000D02*
X351272D01*
X349500Y223228D02*
Y226772D01*
X347728Y235000D02*
X351272D01*
X349500Y233228D02*
Y236772D01*
X347728Y245000D02*
X351272D01*
X349500Y243228D02*
Y246772D01*
X347728Y255000D02*
X351272D01*
X349500Y253228D02*
Y256772D01*
X347728Y265000D02*
X351272D01*
X349500Y263228D02*
Y266772D01*
X347728Y275000D02*
X351272D01*
X349500Y273228D02*
Y276772D01*
X347728Y285000D02*
X351272D01*
X349500Y283228D02*
Y286772D01*
X347728Y295000D02*
X351272D01*
X349500Y293228D02*
Y296772D01*
X347728Y305000D02*
X351272D01*
X349500Y303228D02*
Y306772D01*
X347728Y315000D02*
X351272D01*
X349500Y313228D02*
Y316772D01*
X347728Y325000D02*
X351272D01*
X349500Y323228D02*
Y326772D01*
X347728Y335000D02*
X351272D01*
X349500Y333228D02*
Y336772D01*
X347728Y345000D02*
X351272D01*
X349500Y343228D02*
Y346772D01*
X447728Y345000D02*
X451272D01*
X449500Y343228D02*
Y346772D01*
X447728Y335000D02*
X451272D01*
X449500Y333228D02*
Y336772D01*
X447728Y325000D02*
X451272D01*
X449500Y323228D02*
Y326772D01*
X447728Y315000D02*
X451272D01*
X449500Y313228D02*
Y316772D01*
X447728Y305000D02*
X451272D01*
X449500Y303228D02*
Y306772D01*
X447728Y295000D02*
X451272D01*
X449500Y293228D02*
Y296772D01*
X447728Y285000D02*
X451272D01*
X449500Y283228D02*
Y286772D01*
X447728Y275000D02*
X451272D01*
X449500Y273228D02*
Y276772D01*
X447728Y265000D02*
X451272D01*
X449500Y263228D02*
Y266772D01*
X447728Y255000D02*
X451272D01*
X449500Y253228D02*
Y256772D01*
X447728Y245000D02*
X451272D01*
X449500Y243228D02*
Y246772D01*
X447728Y235000D02*
X451272D01*
X449500Y233228D02*
Y236772D01*
X447728Y225000D02*
X451272D01*
X449500Y223228D02*
Y226772D01*
X447728Y215000D02*
X451272D01*
X449500Y213228D02*
Y216772D01*
X447728Y205000D02*
X451272D01*
X449500Y203228D02*
Y206772D01*
X447728Y195000D02*
X451272D01*
X449500Y193228D02*
Y196772D01*
X447728Y185000D02*
X451272D01*
X449500Y183228D02*
Y186772D01*
X447728Y175000D02*
X451272D01*
X449500Y173228D02*
Y176772D01*
X447728Y165000D02*
X451272D01*
X449500Y163228D02*
Y166772D01*
X199130Y213500D02*
X202130D01*
X200630Y212000D02*
Y215000D01*
X199130Y223343D02*
X202130D01*
X200630Y221843D02*
Y224843D01*
X199130Y203657D02*
X202130D01*
X200630Y202157D02*
Y205157D01*
X238500Y252870D02*
X241500D01*
X240000Y251370D02*
Y254370D01*
X228657Y252870D02*
X231657D01*
X230157Y251370D02*
Y254370D01*
X248343Y252870D02*
X251343D01*
X249843Y251370D02*
Y254370D01*
X211925Y244012D02*
X214925D01*
X213425Y242512D02*
Y245512D01*
X265075Y244012D02*
X268075D01*
X266575Y242512D02*
Y245512D01*
X211925Y182988D02*
X214925D01*
X213425Y181488D02*
Y184488D01*
X265075Y182988D02*
X268075D01*
X266575Y181488D02*
Y184488D01*
X524685Y349500D02*
X527685D01*
X526185Y348000D02*
Y351000D01*
X505000Y349500D02*
X508000D01*
X506500Y348000D02*
Y351000D01*
X204000Y426685D02*
X207000D01*
X205500Y425185D02*
Y428185D01*
X204000Y416843D02*
X207000D01*
X205500Y415343D02*
Y418343D01*
X204000Y407000D02*
X207000D01*
X205500Y405500D02*
Y408500D01*
X520031Y398085D02*
X523969D01*
X522000Y396116D02*
Y400053D01*
X520031Y416589D02*
X523969D01*
X522000Y414620D02*
Y418557D01*
X520031Y435093D02*
X523969D01*
X522000Y433124D02*
Y437061D01*
X586031Y435600D02*
X589968D01*
X588000Y433632D02*
Y437569D01*
X586031Y417096D02*
X589968D01*
X588000Y415128D02*
Y419065D01*
X586031Y398593D02*
X589968D01*
X588000Y396624D02*
Y400561D01*
X651031Y398085D02*
X654969D01*
X653000Y396116D02*
Y400053D01*
X651031Y416589D02*
X654969D01*
X653000Y414620D02*
Y418557D01*
X651031Y435093D02*
X654969D01*
X653000Y433124D02*
Y437061D01*
X147000Y426685D02*
X150000D01*
X148500Y425185D02*
Y428185D01*
X147000Y416843D02*
X150000D01*
X148500Y415343D02*
Y418343D01*
X147000Y407000D02*
X150000D01*
X148500Y405500D02*
Y408500D01*
X534130Y212000D02*
X537130D01*
X535630Y210500D02*
Y213500D01*
X534130Y221843D02*
X537130D01*
X535630Y220343D02*
Y223343D01*
X534130Y202157D02*
X537130D01*
X535630Y200657D02*
Y203657D01*
X573500Y251370D02*
X576500D01*
X575000Y249870D02*
Y252870D01*
X563657Y251370D02*
X566657D01*
X565157Y249870D02*
Y252870D01*
X583343Y251370D02*
X586343D01*
X584843Y249870D02*
Y252870D01*
X546925Y242512D02*
X549925D01*
X548425Y241012D02*
Y244012D01*
X600075Y242512D02*
X603075D01*
X601575Y241012D02*
Y244012D01*
X546925Y181488D02*
X549925D01*
X548425Y179988D02*
Y182988D01*
X600075Y181488D02*
X603075D01*
X601575Y179988D02*
Y182988D01*
X268000Y426685D02*
X271000D01*
X269500Y425185D02*
Y428185D01*
X268000Y416843D02*
X271000D01*
X269500Y415343D02*
Y418343D01*
X268000Y407000D02*
X271000D01*
X269500Y405500D02*
Y408500D01*
X344500Y423400D02*
X347300D01*
X345900Y422000D02*
Y424800D01*
X217500Y225900D02*
X220300D01*
X218900Y224500D02*
Y227300D01*
X299900Y256700D02*
X302700D01*
X301300Y255300D02*
Y258100D01*
X369400Y246300D02*
X372200D01*
X370800Y244900D02*
Y247700D01*
X369400Y349700D02*
X372200D01*
X370800Y348300D02*
Y351100D01*
X328100Y416500D02*
X330900D01*
X329500Y415100D02*
Y417900D01*
X342600Y340000D02*
X345400D01*
X344000Y338600D02*
Y341400D01*
X411400Y379700D02*
X414200D01*
X412800Y378300D02*
Y381100D01*
X514800Y379700D02*
X517600D01*
X516200Y378300D02*
Y381100D01*
M02*
