G04*
G04 #@! TF.GenerationSoftware,Altium Limited,Altium Designer,21.4.1 (30)*
G04*
G04 Layer_Physical_Order=2*
G04 Layer_Color=16711680*
%FSLAX25Y25*%
%MOIN*%
G70*
G04*
G04 #@! TF.SameCoordinates,E3ABAEE7-5D4E-4445-B66A-D27F58F8AFC5*
G04*
G04*
G04 #@! TF.FilePolarity,Positive*
G04*
G01*
G75*
%ADD10C,0.01000*%
%ADD33R,0.05906X0.05906*%
%ADD34C,0.05906*%
%ADD35C,0.07874*%
%ADD36C,0.06000*%
%ADD37R,0.15748X0.11811*%
%ADD38C,0.05000*%
G36*
X671500Y145000D02*
X135000D01*
X134500Y145500D01*
Y465500D01*
X671500D01*
Y145000D01*
D02*
G37*
%LPC*%
G36*
X149027Y430685D02*
X147973D01*
X146956Y430412D01*
X146044Y429886D01*
X145299Y429141D01*
X144773Y428229D01*
X144500Y427212D01*
Y426158D01*
X144773Y425141D01*
X145299Y424229D01*
X146044Y423484D01*
X146956Y422958D01*
X147973Y422685D01*
X149027D01*
X150044Y422958D01*
X150956Y423484D01*
X151701Y424229D01*
X152227Y425141D01*
X152500Y426158D01*
Y427212D01*
X152227Y428229D01*
X151701Y429141D01*
X150956Y429886D01*
X150044Y430412D01*
X149027Y430685D01*
D02*
G37*
G36*
X657500Y461629D02*
X614500D01*
X613914Y461513D01*
X613418Y461181D01*
X594743Y442506D01*
X579126D01*
Y428695D01*
X596874D01*
Y440311D01*
X615133Y458571D01*
X656867D01*
X660871Y454566D01*
Y441998D01*
X644126D01*
Y436622D01*
X622100D01*
X621515Y436506D01*
X621019Y436174D01*
X597336Y412491D01*
X596874Y412683D01*
Y424002D01*
X579126D01*
Y418626D01*
X573633D01*
X543878Y448381D01*
X543382Y448713D01*
X542796Y448829D01*
X406600D01*
X406015Y448713D01*
X405519Y448381D01*
X377366Y420229D01*
X348363D01*
X348179Y420729D01*
X348701Y421251D01*
X349162Y422049D01*
X349400Y422939D01*
Y423861D01*
X349162Y424751D01*
X348701Y425549D01*
X348049Y426201D01*
X347251Y426661D01*
X346361Y426900D01*
X345439D01*
X344549Y426661D01*
X343751Y426201D01*
X343099Y425549D01*
X342638Y424751D01*
X342400Y423861D01*
Y422939D01*
X342392Y422929D01*
X271995D01*
X271861Y423429D01*
X271956Y423484D01*
X272701Y424229D01*
X273227Y425141D01*
X273500Y426158D01*
Y427212D01*
X273227Y428229D01*
X272701Y429141D01*
X271956Y429886D01*
X271044Y430412D01*
X270027Y430685D01*
X268973D01*
X267956Y430412D01*
X267044Y429886D01*
X266299Y429141D01*
X265773Y428229D01*
X265500Y427212D01*
Y426158D01*
X265773Y425141D01*
X266299Y424229D01*
X267044Y423484D01*
X267139Y423429D01*
X267005Y422929D01*
X211419D01*
X209220Y425128D01*
X209227Y425141D01*
X209500Y426158D01*
Y427212D01*
X209227Y428229D01*
X208701Y429141D01*
X207956Y429886D01*
X207044Y430412D01*
X206027Y430685D01*
X204973D01*
X203956Y430412D01*
X203044Y429886D01*
X202299Y429141D01*
X201773Y428229D01*
X201500Y427212D01*
Y426158D01*
X201773Y425141D01*
X202299Y424229D01*
X203044Y423484D01*
X203956Y422958D01*
X204973Y422685D01*
X206027D01*
X207044Y422958D01*
X207057Y422965D01*
X209704Y420319D01*
X210200Y419987D01*
X210785Y419871D01*
X266218D01*
X266409Y419409D01*
X266299Y419299D01*
X265773Y418387D01*
X265769Y418372D01*
X209231D01*
X209227Y418387D01*
X208701Y419299D01*
X207956Y420043D01*
X207044Y420570D01*
X206027Y420843D01*
X204973D01*
X203956Y420570D01*
X203044Y420043D01*
X202299Y419299D01*
X201773Y418387D01*
X201769Y418372D01*
X152231D01*
X152227Y418387D01*
X151701Y419299D01*
X150956Y420043D01*
X150044Y420570D01*
X149027Y420843D01*
X147973D01*
X146956Y420570D01*
X146044Y420043D01*
X145299Y419299D01*
X144773Y418387D01*
X144500Y417369D01*
Y416316D01*
X144773Y415299D01*
X145299Y414387D01*
X146044Y413642D01*
X146956Y413115D01*
X147973Y412843D01*
X149027D01*
X150044Y413115D01*
X150956Y413642D01*
X151701Y414387D01*
X152227Y415299D01*
X152231Y415313D01*
X201769D01*
X201773Y415299D01*
X202299Y414387D01*
X203044Y413642D01*
X203956Y413115D01*
X204973Y412843D01*
X206027D01*
X207044Y413115D01*
X207956Y413642D01*
X208701Y414387D01*
X209227Y415299D01*
X209231Y415313D01*
X265769D01*
X265773Y415299D01*
X266299Y414387D01*
X267044Y413642D01*
X267956Y413115D01*
X268973Y412843D01*
X270027D01*
X271044Y413115D01*
X271057Y413123D01*
X276161Y408019D01*
X276657Y407687D01*
X277243Y407571D01*
X409254D01*
X409446Y407109D01*
X351022Y348685D01*
X350020Y348953D01*
X348980D01*
X347974Y348683D01*
X347073Y348163D01*
X346337Y347427D01*
X345817Y346526D01*
X345547Y345520D01*
Y344480D01*
X345786Y343587D01*
X345546Y343331D01*
X345381Y343244D01*
X345351Y343262D01*
X344461Y343500D01*
X343539D01*
X342649Y343262D01*
X341851Y342801D01*
X341199Y342149D01*
X340739Y341351D01*
X340500Y340461D01*
Y339539D01*
X340739Y338649D01*
X341199Y337851D01*
X341851Y337199D01*
X342649Y336738D01*
X343539Y336500D01*
X344461D01*
X345351Y336738D01*
X345381Y336756D01*
X345546Y336669D01*
X345786Y336413D01*
X345547Y335520D01*
Y334480D01*
X345817Y333474D01*
X346337Y332573D01*
X347073Y331837D01*
X347974Y331317D01*
X348980Y331047D01*
X350020D01*
X351026Y331317D01*
X351927Y331837D01*
X352663Y332573D01*
X353183Y333474D01*
X353453Y334480D01*
Y335520D01*
X353183Y336526D01*
X352663Y337427D01*
X352119Y337971D01*
X352326Y338471D01*
X386566D01*
X435619Y289419D01*
X436115Y289087D01*
X436700Y288971D01*
X437285Y289087D01*
X437781Y289419D01*
X438700Y290337D01*
X439619Y289419D01*
X440115Y289087D01*
X440700Y288971D01*
X447472D01*
X447606Y288471D01*
X447073Y288163D01*
X446337Y287427D01*
X445817Y286526D01*
X445547Y285520D01*
Y284480D01*
X445817Y283474D01*
X446337Y282573D01*
X446881Y282029D01*
X446673Y281529D01*
X404533D01*
X395481Y290581D01*
X394985Y290913D01*
X394400Y291029D01*
X351528D01*
X351394Y291529D01*
X351927Y291837D01*
X352663Y292573D01*
X353183Y293474D01*
X353453Y294480D01*
Y295520D01*
X353185Y296522D01*
X355081Y298419D01*
X355413Y298915D01*
X355529Y299500D01*
Y307000D01*
X355413Y307585D01*
X355081Y308081D01*
X352581Y310581D01*
X352085Y310913D01*
X351521Y311025D01*
X351490Y311076D01*
X351394Y311529D01*
X351927Y311837D01*
X352663Y312573D01*
X353183Y313474D01*
X353453Y314480D01*
Y315520D01*
X353183Y316526D01*
X352663Y317427D01*
X351927Y318163D01*
X351026Y318683D01*
X350020Y318953D01*
X348980D01*
X347974Y318683D01*
X347073Y318163D01*
X346337Y317427D01*
X345817Y316526D01*
X345547Y315520D01*
Y314480D01*
X345817Y313474D01*
X346337Y312573D01*
X347073Y311837D01*
X347606Y311529D01*
X347472Y311029D01*
X319200D01*
X318615Y310913D01*
X318119Y310581D01*
X256467Y248929D01*
X253537D01*
X253346Y249391D01*
X253793Y249839D01*
X254443Y250964D01*
X254780Y252220D01*
Y253520D01*
X254443Y254776D01*
X253793Y255901D01*
X252874Y256821D01*
X251748Y257471D01*
X250493Y257807D01*
X249193D01*
X247937Y257471D01*
X247600Y257276D01*
X243294Y261581D01*
X242798Y261913D01*
X242213Y262029D01*
X204630D01*
X204045Y261913D01*
X203549Y261581D01*
X199549Y257581D01*
X199217Y257085D01*
X199101Y256500D01*
Y228044D01*
X198724Y227943D01*
X197599Y227293D01*
X196679Y226374D01*
X196029Y225248D01*
X195693Y223993D01*
Y222693D01*
X196029Y221437D01*
X196679Y220311D01*
X197599Y219392D01*
X198724Y218742D01*
X198988Y218671D01*
Y218171D01*
X198724Y218101D01*
X197599Y217451D01*
X196679Y216531D01*
X196029Y215406D01*
X195693Y214150D01*
Y212850D01*
X196029Y211594D01*
X196679Y210469D01*
X197599Y209549D01*
X198724Y208899D01*
X199980Y208563D01*
X201280D01*
X202536Y208899D01*
X203661Y209549D01*
X204581Y210469D01*
X205231Y211594D01*
X205567Y212850D01*
Y214150D01*
X205231Y215406D01*
X205036Y215743D01*
X214938Y225645D01*
X215174Y225547D01*
X215408Y225408D01*
X215638Y224549D01*
X216099Y223751D01*
X216751Y223099D01*
X217549Y222639D01*
X218439Y222400D01*
X219361D01*
X220251Y222639D01*
X221049Y223099D01*
X221701Y223751D01*
X222059Y224371D01*
X308100D01*
X308685Y224487D01*
X309181Y224819D01*
X327834Y243471D01*
X345819D01*
X346337Y242573D01*
X347073Y241837D01*
X347974Y241317D01*
X348980Y241047D01*
X350020D01*
X351026Y241317D01*
X351927Y241837D01*
X352009Y241919D01*
X352471Y241727D01*
Y240134D01*
X351022Y238685D01*
X350020Y238953D01*
X348980D01*
X347974Y238683D01*
X347073Y238163D01*
X346337Y237427D01*
X345817Y236526D01*
X345547Y235520D01*
Y234480D01*
X345817Y233474D01*
X346337Y232573D01*
X347073Y231837D01*
X347974Y231317D01*
X348980Y231047D01*
X350020D01*
X351026Y231317D01*
X351927Y231837D01*
X352663Y232573D01*
X353183Y233474D01*
X353453Y234480D01*
Y235520D01*
X353185Y236522D01*
X355081Y238419D01*
X355413Y238915D01*
X355529Y239500D01*
Y250000D01*
X355413Y250585D01*
X355081Y251081D01*
X354781Y251381D01*
X354285Y251713D01*
X353700Y251829D01*
X352626D01*
X352419Y252329D01*
X352663Y252573D01*
X353183Y253474D01*
X353453Y254480D01*
Y255520D01*
X353183Y256526D01*
X352663Y257427D01*
X351927Y258163D01*
X351026Y258683D01*
X350020Y258953D01*
X348980D01*
X347974Y258683D01*
X347073Y258163D01*
X346337Y257427D01*
X345817Y256526D01*
X345547Y255520D01*
Y254480D01*
X345817Y253474D01*
X346337Y252573D01*
X346581Y252329D01*
X346374Y251829D01*
X308333D01*
X304615Y255548D01*
X304800Y256239D01*
Y257161D01*
X304561Y258051D01*
X304101Y258849D01*
X303449Y259501D01*
X302651Y259962D01*
X301761Y260200D01*
X300839D01*
X299949Y259962D01*
X299151Y259501D01*
X298499Y258849D01*
X298039Y258051D01*
X297800Y257161D01*
Y256239D01*
X298039Y255349D01*
X298499Y254551D01*
X299151Y253899D01*
X299949Y253438D01*
X300839Y253200D01*
X301761D01*
X302452Y253385D01*
X306619Y249219D01*
X307115Y248887D01*
X307700Y248771D01*
X347125D01*
X347259Y248271D01*
X347073Y248163D01*
X346337Y247427D01*
X345819Y246529D01*
X327200D01*
X326615Y246413D01*
X326119Y246081D01*
X307467Y227429D01*
X222059D01*
X221701Y228049D01*
X221049Y228701D01*
X220251Y229162D01*
X219392Y229392D01*
X219253Y229626D01*
X219155Y229862D01*
X220363Y231071D01*
X269101D01*
X269686Y231187D01*
X270182Y231519D01*
X342134Y303471D01*
X345819D01*
X346337Y302573D01*
X347073Y301837D01*
X347974Y301317D01*
X348980Y301047D01*
X350020D01*
X351026Y301317D01*
X351927Y301837D01*
X352009Y301919D01*
X352471Y301727D01*
Y300133D01*
X351022Y298685D01*
X350020Y298953D01*
X348980D01*
X347974Y298683D01*
X347073Y298163D01*
X346337Y297427D01*
X345817Y296526D01*
X345547Y295520D01*
Y294480D01*
X345817Y293474D01*
X346337Y292573D01*
X347073Y291837D01*
X347606Y291529D01*
X347510Y291076D01*
X347479Y291025D01*
X346915Y290913D01*
X346419Y290581D01*
X343919Y288081D01*
X343587Y287585D01*
X343471Y287000D01*
Y279500D01*
X343587Y278915D01*
X343919Y278419D01*
X345815Y276522D01*
X345547Y275520D01*
Y274480D01*
X345817Y273474D01*
X346337Y272573D01*
X347073Y271837D01*
X347974Y271317D01*
X348980Y271047D01*
X350020D01*
X351026Y271317D01*
X351927Y271837D01*
X352663Y272573D01*
X353183Y273474D01*
X353453Y274480D01*
Y275520D01*
X353183Y276526D01*
X352663Y277427D01*
X351927Y278163D01*
X351026Y278683D01*
X350020Y278953D01*
X348980D01*
X347978Y278684D01*
X346529Y280134D01*
Y281727D01*
X346991Y281919D01*
X347073Y281837D01*
X347974Y281317D01*
X348980Y281047D01*
X350020D01*
X351022Y281315D01*
X393919Y238419D01*
X394415Y238087D01*
X395000Y237971D01*
X446227D01*
X446419Y237509D01*
X446337Y237427D01*
X445817Y236526D01*
X445547Y235520D01*
Y234480D01*
X445817Y233474D01*
X446337Y232573D01*
X447073Y231837D01*
X447974Y231317D01*
X448980Y231047D01*
X450020D01*
X451026Y231317D01*
X451927Y231837D01*
X452663Y232573D01*
X453183Y233474D01*
X453453Y234480D01*
Y235520D01*
X453183Y236526D01*
X452663Y237427D01*
X452581Y237509D01*
X452773Y237971D01*
X507497D01*
X531224Y214243D01*
X531029Y213906D01*
X530693Y212650D01*
Y211350D01*
X531029Y210094D01*
X531679Y208969D01*
X532599Y208049D01*
X533724Y207399D01*
X534980Y207063D01*
X536280D01*
X537536Y207399D01*
X538661Y208049D01*
X539581Y208969D01*
X540231Y210094D01*
X540567Y211350D01*
Y212650D01*
X540231Y213906D01*
X539581Y215031D01*
X538661Y215951D01*
X537536Y216601D01*
X537272Y216671D01*
Y217171D01*
X537536Y217242D01*
X538661Y217892D01*
X539581Y218811D01*
X540231Y219937D01*
X540567Y221193D01*
Y222493D01*
X540231Y223748D01*
X539581Y224874D01*
X538661Y225793D01*
X537536Y226443D01*
X537159Y226544D01*
Y243096D01*
X560391Y266328D01*
X567722D01*
X578369Y255681D01*
X578031Y255321D01*
X576906Y255971D01*
X575650Y256307D01*
X574350D01*
X573094Y255971D01*
X571969Y255321D01*
X571049Y254401D01*
X570399Y253276D01*
X570063Y252020D01*
Y250720D01*
X570399Y249464D01*
X571049Y248339D01*
X570689Y248001D01*
X566239Y252451D01*
X565743Y252783D01*
X565157Y252899D01*
X557283D01*
X556698Y252783D01*
X556202Y252451D01*
X547344Y243593D01*
X547012Y243097D01*
X546896Y242512D01*
X547012Y241927D01*
X547344Y241430D01*
X547840Y241099D01*
X548425Y240982D01*
X549011Y241099D01*
X549507Y241430D01*
X557917Y249841D01*
X564524D01*
X572934Y241430D01*
X573430Y241099D01*
X574016Y240982D01*
X601575D01*
X602160Y241099D01*
X602656Y241430D01*
X602988Y241927D01*
X603104Y242512D01*
X602988Y243097D01*
X602656Y243593D01*
X602160Y243925D01*
X601575Y244041D01*
X588924D01*
X588645Y244505D01*
X588650Y244541D01*
X589114Y244851D01*
X591381Y247119D01*
X591713Y247615D01*
X591829Y248200D01*
Y266200D01*
X591713Y266785D01*
X591381Y267281D01*
X577581Y281081D01*
X577085Y281413D01*
X576500Y281529D01*
X452326D01*
X452119Y282029D01*
X452663Y282573D01*
X453183Y283474D01*
X453453Y284480D01*
Y285520D01*
X453183Y286526D01*
X452663Y287427D01*
X451927Y288163D01*
X451394Y288471D01*
X451528Y288971D01*
X467185D01*
X467770Y289087D01*
X468266Y289419D01*
X524628Y345780D01*
X524641Y345773D01*
X525658Y345500D01*
X526712D01*
X527729Y345773D01*
X528641Y346299D01*
X529386Y347044D01*
X529912Y347956D01*
X530185Y348973D01*
Y350027D01*
X529912Y351044D01*
X529386Y351956D01*
X528641Y352701D01*
X527729Y353227D01*
X526712Y353500D01*
X525658D01*
X525181Y353372D01*
X524634Y353743D01*
X524621Y353858D01*
X546633Y375871D01*
X622600D01*
X623185Y375987D01*
X623681Y376319D01*
X643626Y396263D01*
X644126Y396056D01*
Y391179D01*
X661874D01*
Y404990D01*
X644126D01*
Y399614D01*
X643285D01*
X642699Y399498D01*
X642203Y399166D01*
X621967Y378929D01*
X547446D01*
X547254Y379391D01*
X550734Y382871D01*
X610000D01*
X610585Y382987D01*
X611081Y383319D01*
X635333Y407571D01*
X662400D01*
X662985Y407687D01*
X663481Y408019D01*
X663813Y408515D01*
X663929Y409100D01*
Y455200D01*
X663813Y455785D01*
X663481Y456281D01*
X658581Y461181D01*
X658085Y461513D01*
X657500Y461629D01*
D02*
G37*
G36*
X269500Y408529D02*
X148500D01*
X147915Y408413D01*
X147419Y408081D01*
X147087Y407585D01*
X146971Y407000D01*
X147087Y406415D01*
X147419Y405919D01*
X147915Y405587D01*
X148500Y405471D01*
X269500D01*
X270085Y405587D01*
X270581Y405919D01*
X270913Y406415D01*
X271029Y407000D01*
X270913Y407585D01*
X270581Y408081D01*
X270085Y408413D01*
X269500Y408529D01*
D02*
G37*
G36*
X350020Y328953D02*
X348980D01*
X347974Y328683D01*
X347073Y328163D01*
X346337Y327427D01*
X345817Y326526D01*
X345547Y325520D01*
Y324480D01*
X345817Y323474D01*
X346337Y322573D01*
X347073Y321837D01*
X347974Y321317D01*
X348980Y321047D01*
X350020D01*
X351026Y321317D01*
X351927Y321837D01*
X352663Y322573D01*
X353183Y323474D01*
X353453Y324480D01*
Y325520D01*
X353183Y326526D01*
X352663Y327427D01*
X351927Y328163D01*
X351026Y328683D01*
X350020Y328953D01*
D02*
G37*
G36*
Y268953D02*
X348980D01*
X347974Y268683D01*
X347073Y268163D01*
X346337Y267427D01*
X345817Y266526D01*
X345547Y265520D01*
Y264480D01*
X345817Y263474D01*
X346337Y262573D01*
X347073Y261837D01*
X347974Y261317D01*
X348980Y261047D01*
X350020D01*
X351026Y261317D01*
X351927Y261837D01*
X352663Y262573D01*
X353183Y263474D01*
X353453Y264480D01*
Y265520D01*
X353183Y266526D01*
X352663Y267427D01*
X351927Y268163D01*
X351026Y268683D01*
X350020Y268953D01*
D02*
G37*
G36*
X371261Y249800D02*
X370339D01*
X369449Y249562D01*
X368651Y249101D01*
X367999Y248449D01*
X367538Y247651D01*
X367300Y246761D01*
Y245839D01*
X367485Y245148D01*
X351022Y228684D01*
X350020Y228953D01*
X348980D01*
X347974Y228683D01*
X347073Y228163D01*
X346337Y227427D01*
X345819Y226529D01*
X322000D01*
X321415Y226413D01*
X320919Y226081D01*
X315919Y221081D01*
X315587Y220585D01*
X315471Y220000D01*
Y214700D01*
X315587Y214115D01*
X315919Y213619D01*
X316415Y213287D01*
X317000Y213171D01*
X317585Y213287D01*
X318081Y213619D01*
X318413Y214115D01*
X318529Y214700D01*
Y219367D01*
X322634Y223471D01*
X345819D01*
X346337Y222573D01*
X347073Y221837D01*
X347974Y221317D01*
X348980Y221047D01*
X350020D01*
X351026Y221317D01*
X351927Y221837D01*
X352663Y222573D01*
X353183Y223474D01*
X353453Y224480D01*
Y225520D01*
X353185Y226522D01*
X369648Y242985D01*
X370339Y242800D01*
X371261D01*
X372151Y243039D01*
X372949Y243499D01*
X373601Y244151D01*
X374061Y244949D01*
X374300Y245839D01*
Y246761D01*
X374061Y247651D01*
X373601Y248449D01*
X372949Y249101D01*
X372151Y249562D01*
X371261Y249800D01*
D02*
G37*
G36*
X450020Y228953D02*
X448980D01*
X447974Y228683D01*
X447073Y228163D01*
X446337Y227427D01*
X445817Y226526D01*
X445547Y225520D01*
Y224480D01*
X445817Y223474D01*
X446337Y222573D01*
X447073Y221837D01*
X447974Y221317D01*
X448980Y221047D01*
X450020D01*
X451026Y221317D01*
X451927Y221837D01*
X452663Y222573D01*
X453183Y223474D01*
X453453Y224480D01*
Y225520D01*
X453183Y226526D01*
X452663Y227427D01*
X451927Y228163D01*
X451026Y228683D01*
X450020Y228953D01*
D02*
G37*
G36*
Y218953D02*
X448980D01*
X447974Y218683D01*
X447073Y218163D01*
X446337Y217427D01*
X445817Y216526D01*
X445547Y215520D01*
Y214480D01*
X445817Y213474D01*
X446337Y212573D01*
X447073Y211837D01*
X447974Y211317D01*
X448980Y211047D01*
X450020D01*
X451026Y211317D01*
X451927Y211837D01*
X452663Y212573D01*
X453183Y213474D01*
X453453Y214480D01*
Y215520D01*
X453183Y216526D01*
X452663Y217427D01*
X451927Y218163D01*
X451026Y218683D01*
X450020Y218953D01*
D02*
G37*
G36*
X350020D02*
X348980D01*
X347974Y218683D01*
X347073Y218163D01*
X346337Y217427D01*
X345817Y216526D01*
X345547Y215520D01*
Y214480D01*
X345817Y213474D01*
X346337Y212573D01*
X347073Y211837D01*
X347974Y211317D01*
X348980Y211047D01*
X350020D01*
X351026Y211317D01*
X351927Y211837D01*
X352663Y212573D01*
X353183Y213474D01*
X353453Y214480D01*
Y215520D01*
X353183Y216526D01*
X352663Y217427D01*
X351927Y218163D01*
X351026Y218683D01*
X350020Y218953D01*
D02*
G37*
G36*
X450020Y208953D02*
X448980D01*
X447974Y208683D01*
X447073Y208163D01*
X446337Y207427D01*
X445817Y206526D01*
X445547Y205520D01*
Y204480D01*
X445817Y203474D01*
X446337Y202573D01*
X447073Y201837D01*
X447974Y201317D01*
X448980Y201047D01*
X450020D01*
X451026Y201317D01*
X451927Y201837D01*
X452663Y202573D01*
X453183Y203474D01*
X453453Y204480D01*
Y205520D01*
X453183Y206526D01*
X452663Y207427D01*
X451927Y208163D01*
X451026Y208683D01*
X450020Y208953D01*
D02*
G37*
G36*
X350020D02*
X348980D01*
X347974Y208683D01*
X347073Y208163D01*
X346337Y207427D01*
X345817Y206526D01*
X345547Y205520D01*
Y204480D01*
X345817Y203474D01*
X346337Y202573D01*
X347073Y201837D01*
X347974Y201317D01*
X348980Y201047D01*
X350020D01*
X351026Y201317D01*
X351927Y201837D01*
X352663Y202573D01*
X353183Y203474D01*
X353453Y204480D01*
Y205520D01*
X353183Y206526D01*
X352663Y207427D01*
X351927Y208163D01*
X351026Y208683D01*
X350020Y208953D01*
D02*
G37*
G36*
X450020Y198953D02*
X448980D01*
X447974Y198683D01*
X447073Y198163D01*
X446337Y197427D01*
X445817Y196526D01*
X445547Y195520D01*
Y194480D01*
X445817Y193474D01*
X446337Y192573D01*
X447073Y191837D01*
X447974Y191317D01*
X448980Y191047D01*
X450020D01*
X451026Y191317D01*
X451927Y191837D01*
X452663Y192573D01*
X453183Y193474D01*
X453453Y194480D01*
Y195520D01*
X453183Y196526D01*
X452663Y197427D01*
X451927Y198163D01*
X451026Y198683D01*
X450020Y198953D01*
D02*
G37*
G36*
X350020D02*
X348980D01*
X347974Y198683D01*
X347073Y198163D01*
X346337Y197427D01*
X345817Y196526D01*
X345547Y195520D01*
Y194480D01*
X345817Y193474D01*
X346337Y192573D01*
X347073Y191837D01*
X347974Y191317D01*
X348980Y191047D01*
X350020D01*
X351026Y191317D01*
X351927Y191837D01*
X352663Y192573D01*
X353183Y193474D01*
X353453Y194480D01*
Y195520D01*
X353183Y196526D01*
X352663Y197427D01*
X351927Y198163D01*
X351026Y198683D01*
X350020Y198953D01*
D02*
G37*
G36*
X450020Y188953D02*
X448980D01*
X447974Y188683D01*
X447073Y188163D01*
X446337Y187427D01*
X445817Y186526D01*
X445547Y185520D01*
Y184480D01*
X445817Y183474D01*
X446337Y182573D01*
X447073Y181837D01*
X447974Y181317D01*
X448980Y181047D01*
X450020D01*
X451026Y181317D01*
X451927Y181837D01*
X452663Y182573D01*
X453183Y183474D01*
X453453Y184480D01*
Y185520D01*
X453183Y186526D01*
X452663Y187427D01*
X451927Y188163D01*
X451026Y188683D01*
X450020Y188953D01*
D02*
G37*
G36*
X350020D02*
X348980D01*
X347974Y188683D01*
X347073Y188163D01*
X346337Y187427D01*
X345817Y186526D01*
X345547Y185520D01*
Y184480D01*
X345817Y183474D01*
X346337Y182573D01*
X347073Y181837D01*
X347974Y181317D01*
X348980Y181047D01*
X350020D01*
X351026Y181317D01*
X351927Y181837D01*
X352663Y182573D01*
X353183Y183474D01*
X353453Y184480D01*
Y185520D01*
X353183Y186526D01*
X352663Y187427D01*
X351927Y188163D01*
X351026Y188683D01*
X350020Y188953D01*
D02*
G37*
G36*
X450020Y178953D02*
X448980D01*
X447974Y178683D01*
X447073Y178163D01*
X446337Y177427D01*
X445817Y176526D01*
X445547Y175520D01*
Y174480D01*
X445817Y173474D01*
X446337Y172573D01*
X447073Y171837D01*
X447974Y171317D01*
X448980Y171047D01*
X450020D01*
X451026Y171317D01*
X451927Y171837D01*
X452663Y172573D01*
X453183Y173474D01*
X453453Y174480D01*
Y175520D01*
X453183Y176526D01*
X452663Y177427D01*
X451927Y178163D01*
X451026Y178683D01*
X450020Y178953D01*
D02*
G37*
G36*
X350020D02*
X348980D01*
X347974Y178683D01*
X347073Y178163D01*
X346337Y177427D01*
X345817Y176526D01*
X345547Y175520D01*
Y174480D01*
X345817Y173474D01*
X346337Y172573D01*
X347073Y171837D01*
X347974Y171317D01*
X348980Y171047D01*
X350020D01*
X351026Y171317D01*
X351927Y171837D01*
X352663Y172573D01*
X353183Y173474D01*
X353453Y174480D01*
Y175520D01*
X353183Y176526D01*
X352663Y177427D01*
X351927Y178163D01*
X351026Y178683D01*
X350020Y178953D01*
D02*
G37*
G36*
X353453Y168953D02*
X345547D01*
Y161047D01*
X353453D01*
Y168953D01*
D02*
G37*
G36*
X266575Y184518D02*
X265989Y184401D01*
X265493Y184070D01*
X265162Y183573D01*
X265045Y182988D01*
X265162Y182403D01*
X265493Y181907D01*
X293882Y153519D01*
X294378Y153187D01*
X294963Y153071D01*
X439100D01*
X439685Y153187D01*
X440181Y153519D01*
X450581Y163919D01*
X466622Y179959D01*
X601575D01*
X602160Y180075D01*
X602656Y180407D01*
X602988Y180903D01*
X603104Y181488D01*
X602988Y182073D01*
X602656Y182570D01*
X602160Y182901D01*
X601575Y183018D01*
X465988D01*
X465403Y182901D01*
X464907Y182570D01*
X448419Y166081D01*
X438467Y156129D01*
X295597D01*
X267656Y184070D01*
X267160Y184401D01*
X266575Y184518D01*
D02*
G37*
%LPD*%
G36*
X644126Y410629D02*
X634700D01*
X634115Y410513D01*
X633618Y410181D01*
X609367Y385929D01*
X550100D01*
X549515Y385813D01*
X549019Y385481D01*
X480066Y316529D01*
X453181D01*
X452663Y317427D01*
X451927Y318163D01*
X451026Y318683D01*
X450020Y318953D01*
X448980D01*
X447974Y318683D01*
X447073Y318163D01*
X446991Y318081D01*
X446529Y318273D01*
Y321727D01*
X446991Y321919D01*
X447073Y321837D01*
X447974Y321317D01*
X448980Y321047D01*
X450020D01*
X451026Y321317D01*
X451927Y321837D01*
X452663Y322573D01*
X453183Y323474D01*
X453453Y324480D01*
Y325520D01*
X453183Y326526D01*
X452663Y327427D01*
X451927Y328163D01*
X451026Y328683D01*
X450020Y328953D01*
X448980D01*
X447974Y328683D01*
X447073Y328163D01*
X446991Y328081D01*
X446529Y328273D01*
Y331727D01*
X446991Y331919D01*
X447073Y331837D01*
X447974Y331317D01*
X448980Y331047D01*
X450020D01*
X451026Y331317D01*
X451927Y331837D01*
X452663Y332573D01*
X453183Y333474D01*
X453453Y334480D01*
Y335520D01*
X453183Y336526D01*
X452663Y337427D01*
X451927Y338163D01*
X451026Y338683D01*
X450020Y338953D01*
X448980D01*
X447974Y338683D01*
X447073Y338163D01*
X446991Y338081D01*
X446529Y338273D01*
Y341047D01*
X453453D01*
Y348953D01*
X448638D01*
X448374Y349453D01*
X448454Y349571D01*
X500700D01*
X501285Y349687D01*
X501781Y350019D01*
X541333Y389571D01*
X597400D01*
X597985Y389687D01*
X598481Y390019D01*
X623522Y415059D01*
X644126D01*
Y410629D01*
D02*
G37*
G36*
X346419Y307509D02*
X346337Y307427D01*
X345819Y306529D01*
X341501D01*
X340915Y306413D01*
X340419Y306081D01*
X268467Y234129D01*
X219730D01*
X219145Y234013D01*
X218649Y233681D01*
X204941Y219974D01*
X204581Y220311D01*
X205231Y221437D01*
X205567Y222693D01*
Y223993D01*
X205231Y225248D01*
X204581Y226374D01*
X203661Y227293D01*
X202536Y227943D01*
X202159Y228044D01*
Y255867D01*
X205263Y258971D01*
X241579D01*
X243369Y257181D01*
X243031Y256821D01*
X241906Y257471D01*
X240650Y257807D01*
X239350D01*
X238094Y257471D01*
X236969Y256821D01*
X236049Y255901D01*
X235399Y254776D01*
X235063Y253520D01*
Y252220D01*
X235399Y250964D01*
X236049Y249839D01*
X235689Y249501D01*
X231239Y253951D01*
X230743Y254283D01*
X230157Y254399D01*
X222283D01*
X221698Y254283D01*
X221202Y253951D01*
X212344Y245093D01*
X212012Y244597D01*
X211896Y244012D01*
X212012Y243426D01*
X212344Y242930D01*
X212840Y242599D01*
X213425Y242482D01*
X214011Y242599D01*
X214507Y242930D01*
X222917Y251341D01*
X229524D01*
X237934Y242930D01*
X238430Y242599D01*
X239016Y242482D01*
X266575D01*
X267160Y242599D01*
X267656Y242930D01*
X267988Y243426D01*
X268104Y244012D01*
X267988Y244597D01*
X267656Y245093D01*
X267160Y245425D01*
X266575Y245541D01*
X257850D01*
X257799Y245677D01*
X257766Y246041D01*
X258181Y246319D01*
X319833Y307971D01*
X346227D01*
X346419Y307509D01*
D02*
G37*
D10*
X588000Y404600D02*
X591607D01*
X413600Y409100D02*
X512600D01*
X277243D02*
X413600D01*
X200630Y223343D02*
Y256500D01*
X204630Y260500D01*
X242213D01*
X249843Y252870D01*
X205500Y416843D02*
X269500D01*
X148500D02*
X205500D01*
X269500D02*
X277243Y409100D01*
X349500Y345000D02*
X413600Y409100D01*
X552100D02*
X562607Y398593D01*
X588000D01*
X512600Y435093D02*
X522000D01*
X512600Y409100D02*
Y435093D01*
Y409100D02*
X552100D01*
X588000Y398593D02*
Y404600D01*
X591607D02*
X622100Y435093D01*
X653000D01*
X568355Y267857D02*
X584843Y251370D01*
X559757Y267857D02*
X568355D01*
X535630Y243730D02*
X559757Y267857D01*
X535630Y221843D02*
Y243730D01*
X200630Y213500D02*
X219730Y232600D01*
X269101D01*
X341501Y305000D01*
X349500D01*
X240000Y252870D02*
X245470Y247400D01*
X257100D01*
X319200Y309500D01*
X351500D01*
X354000Y307000D01*
Y299500D02*
Y307000D01*
X349500Y295000D02*
X354000Y299500D01*
X349500Y285000D02*
X395000Y239500D01*
X508130D01*
X535630Y212000D01*
X345000Y279500D02*
X349500Y275000D01*
X345000Y279500D02*
Y287000D01*
X347500Y289500D01*
X394400D01*
X403900Y280000D01*
X576500D01*
X590300Y266200D01*
Y248200D02*
Y266200D01*
X588033Y245933D02*
X590300Y248200D01*
X580437Y245933D02*
X588033D01*
X575000Y251370D02*
X580437Y245933D01*
X205500Y426685D02*
X210785Y421400D01*
X343900D01*
X345900Y423400D01*
X327200Y245000D02*
X349500D01*
X308100Y225900D02*
X327200Y245000D01*
X218900Y225900D02*
X308100D01*
X301300Y256700D02*
X307700Y250300D01*
X353700D01*
X354000Y250000D01*
Y239500D02*
Y250000D01*
X349500Y235000D02*
X354000Y239500D01*
X317000Y214700D02*
Y220000D01*
X322000Y225000D01*
X349500D01*
X370800Y246300D01*
Y349700D02*
X419185Y398085D01*
X522000D01*
X329500Y416500D02*
X331700Y418700D01*
X378000D01*
X406600Y447300D01*
X542796D01*
X573000Y417096D01*
X588000D01*
X449500Y315000D02*
X480700D01*
X550100Y384400D01*
X610000D01*
X634700Y409100D01*
X662400D01*
Y455200D01*
X657500Y460100D02*
X662400Y455200D01*
X614500Y460100D02*
X657500D01*
X590000Y435600D02*
X614500Y460100D01*
X588000Y435600D02*
X590000D01*
X445000Y309500D02*
X449500Y305000D01*
X445000Y309500D02*
Y348600D01*
X447500Y351100D01*
X500700D01*
X540700Y391100D01*
X597400D01*
X622889Y416589D01*
X653000D01*
X449500Y295000D02*
X463600D01*
X546000Y377400D01*
X622600D01*
X643285Y398085D01*
X653000D01*
X213425Y244012D02*
X222283Y252870D01*
X230157D01*
X239016Y244012D01*
X266575D01*
X205500Y407000D02*
X269500D01*
X148500D02*
X205500D01*
X266575Y182988D02*
X294963Y154600D01*
X439100D01*
X449500Y165000D01*
X465988Y181488D01*
X548425D01*
X601575D01*
X548425Y242512D02*
X557283Y251370D01*
X565157D01*
X574016Y242512D01*
X601575D01*
X418335Y312865D02*
X438700Y292500D01*
X467185Y290500D02*
X526185Y349500D01*
X440700Y290500D02*
X467185D01*
X438700Y292500D02*
X440700Y290500D01*
X436700D02*
X438700Y292500D01*
X387200Y340000D02*
X436700Y290500D01*
X344000Y340000D02*
X387200D01*
X412800Y379700D02*
X516200D01*
D33*
X349500Y165000D02*
D03*
X449500Y345000D02*
D03*
D34*
X349500Y175000D02*
D03*
Y185000D02*
D03*
Y195000D02*
D03*
Y205000D02*
D03*
Y215000D02*
D03*
Y225000D02*
D03*
Y235000D02*
D03*
Y245000D02*
D03*
Y255000D02*
D03*
Y265000D02*
D03*
Y275000D02*
D03*
Y285000D02*
D03*
Y295000D02*
D03*
Y305000D02*
D03*
Y315000D02*
D03*
Y325000D02*
D03*
Y335000D02*
D03*
Y345000D02*
D03*
X449500Y335000D02*
D03*
Y325000D02*
D03*
Y315000D02*
D03*
Y305000D02*
D03*
Y295000D02*
D03*
Y285000D02*
D03*
Y275000D02*
D03*
Y265000D02*
D03*
Y255000D02*
D03*
Y245000D02*
D03*
Y235000D02*
D03*
Y225000D02*
D03*
Y215000D02*
D03*
Y205000D02*
D03*
Y195000D02*
D03*
Y185000D02*
D03*
Y175000D02*
D03*
Y165000D02*
D03*
D35*
X200630Y213500D02*
D03*
Y223343D02*
D03*
Y203657D02*
D03*
X240000Y252870D02*
D03*
X230157D02*
D03*
X249843D02*
D03*
X213425Y244012D02*
D03*
X266575D02*
D03*
X213425Y182988D02*
D03*
X266575D02*
D03*
X535630Y212000D02*
D03*
Y221843D02*
D03*
Y202157D02*
D03*
X575000Y251370D02*
D03*
X565157D02*
D03*
X584843D02*
D03*
X548425Y242512D02*
D03*
X601575D02*
D03*
X548425Y181488D02*
D03*
X601575D02*
D03*
D36*
X526185Y349500D02*
D03*
X506500D02*
D03*
X205500Y426685D02*
D03*
Y416843D02*
D03*
Y407000D02*
D03*
X148500Y426685D02*
D03*
Y416843D02*
D03*
Y407000D02*
D03*
X269500Y426685D02*
D03*
Y416843D02*
D03*
Y407000D02*
D03*
D37*
X522000Y398085D02*
D03*
Y416589D02*
D03*
Y435093D02*
D03*
X588000Y435600D02*
D03*
Y417096D02*
D03*
Y398593D02*
D03*
X653000Y398085D02*
D03*
Y416589D02*
D03*
Y435093D02*
D03*
D38*
X345900Y423400D02*
D03*
X218900Y225900D02*
D03*
X301300Y256700D02*
D03*
X370800Y246300D02*
D03*
Y349700D02*
D03*
X329500Y416500D02*
D03*
X344000Y340000D02*
D03*
X412800Y379700D02*
D03*
X516200D02*
D03*
M02*
