G04*
G04 #@! TF.GenerationSoftware,Altium Limited,Altium Designer,21.4.1 (30)*
G04*
G04 Layer_Physical_Order=1*
G04 Layer_Color=255*
%FSLAX25Y25*%
%MOIN*%
G70*
G04*
G04 #@! TF.SameCoordinates,E3ABAEE7-5D4E-4445-B66A-D27F58F8AFC5*
G04*
G04*
G04 #@! TF.FilePolarity,Positive*
G04*
G01*
G75*
%ADD10C,0.01000*%
%ADD11R,0.03150X0.03799*%
%ADD12R,0.07992X0.08976*%
%ADD13R,0.08976X0.07992*%
%ADD14R,0.04331X0.01968*%
%ADD15R,0.03799X0.03150*%
%ADD16R,0.13780X0.09252*%
%ADD17R,0.03150X0.08661*%
%ADD31C,0.02000*%
%ADD32C,0.02500*%
%ADD33R,0.05906X0.05906*%
%ADD34C,0.05906*%
%ADD35C,0.07874*%
%ADD36C,0.06000*%
%ADD37R,0.15748X0.11811*%
%ADD38C,0.05000*%
G36*
X671000Y146000D02*
X670500Y145500D01*
X134500D01*
Y465500D01*
X671000D01*
Y146000D01*
D02*
G37*
%LPC*%
G36*
X191575Y435100D02*
X189500D01*
Y432701D01*
X191575D01*
Y435100D01*
D02*
G37*
G36*
X188500D02*
X186425D01*
Y432701D01*
X188500D01*
Y435100D01*
D02*
G37*
G36*
X596874Y442506D02*
X579126D01*
Y428695D01*
X596874D01*
Y442506D01*
D02*
G37*
G36*
X661874Y441998D02*
X644126D01*
Y428187D01*
X661874D01*
Y441998D01*
D02*
G37*
G36*
X530874D02*
X513126D01*
Y428187D01*
X530874D01*
Y441998D01*
D02*
G37*
G36*
X270027Y430685D02*
X268973D01*
X267956Y430412D01*
X267044Y429886D01*
X266299Y429141D01*
X265773Y428229D01*
X265500Y427212D01*
Y426158D01*
X265773Y425141D01*
X265780Y425128D01*
X237919Y397266D01*
X237587Y396770D01*
X237471Y396185D01*
Y373199D01*
X236425D01*
Y367400D01*
X241575D01*
Y368770D01*
X245567D01*
X247671Y366666D01*
Y341575D01*
X242900D01*
Y336425D01*
X244270D01*
Y288233D01*
X206719Y250681D01*
X206387Y250185D01*
X206271Y249600D01*
Y221304D01*
X204941Y219974D01*
X204581Y220311D01*
X205231Y221437D01*
X205567Y222693D01*
Y223993D01*
X205231Y225248D01*
X204581Y226374D01*
X203661Y227293D01*
X202536Y227943D01*
X201280Y228280D01*
X199980D01*
X198724Y227943D01*
X197599Y227293D01*
X196679Y226374D01*
X196029Y225248D01*
X195693Y223993D01*
Y222693D01*
X196029Y221437D01*
X196679Y220311D01*
X197599Y219392D01*
X198724Y218742D01*
X198988Y218671D01*
Y218171D01*
X198724Y218101D01*
X197599Y217451D01*
X196679Y216531D01*
X196029Y215406D01*
X195693Y214150D01*
Y212850D01*
X196029Y211594D01*
X196679Y210469D01*
X197599Y209549D01*
X198724Y208899D01*
X199980Y208563D01*
X201280D01*
X202536Y208899D01*
X203661Y209549D01*
X203999Y209189D01*
X199549Y204739D01*
X199217Y204243D01*
X199101Y203657D01*
X199217Y203072D01*
X199549Y202576D01*
X211896Y190229D01*
Y182988D01*
X212012Y182403D01*
X212344Y181907D01*
X212840Y181575D01*
X213425Y181459D01*
X214011Y181575D01*
X214507Y181907D01*
X214838Y182403D01*
X214955Y182988D01*
Y190862D01*
X214838Y191447D01*
X214507Y191944D01*
X202793Y203657D01*
X214507Y215371D01*
X214838Y215867D01*
X214955Y216453D01*
Y225170D01*
X215455Y225236D01*
X215638Y224549D01*
X216099Y223751D01*
X216751Y223099D01*
X217549Y222639D01*
X218439Y222400D01*
X219361D01*
X220251Y222639D01*
X221049Y223099D01*
X221701Y223751D01*
X222162Y224549D01*
X222400Y225439D01*
Y226361D01*
X222162Y227251D01*
X221701Y228049D01*
X221049Y228701D01*
X220429Y229059D01*
Y257167D01*
X250281Y287019D01*
X250613Y287515D01*
X250729Y288100D01*
Y367299D01*
X250613Y367884D01*
X250281Y368381D01*
X247281Y371381D01*
X246785Y371712D01*
X246200Y371829D01*
X241575D01*
Y373199D01*
X240529D01*
Y395551D01*
X267943Y422965D01*
X267956Y422958D01*
X268973Y422685D01*
X270027D01*
X271044Y422958D01*
X271956Y423484D01*
X272701Y424229D01*
X273227Y425141D01*
X273500Y426158D01*
Y427212D01*
X273227Y428229D01*
X272701Y429141D01*
X271956Y429886D01*
X271044Y430412D01*
X270027Y430685D01*
D02*
G37*
G36*
X191575Y441400D02*
X186425D01*
Y435600D01*
X191575D01*
Y436971D01*
X193052D01*
X201780Y428242D01*
X201773Y428229D01*
X201500Y427212D01*
Y426158D01*
X201773Y425141D01*
X202299Y424229D01*
X203044Y423484D01*
X203956Y422958D01*
X204973Y422685D01*
X206027D01*
X207044Y422958D01*
X207956Y423484D01*
X208701Y424229D01*
X209227Y425141D01*
X209500Y426158D01*
Y427212D01*
X209227Y428229D01*
X208701Y429141D01*
X207956Y429886D01*
X207044Y430412D01*
X206027Y430685D01*
X204973D01*
X203956Y430412D01*
X203943Y430405D01*
X194766Y439581D01*
X194270Y439913D01*
X193685Y440029D01*
X191575D01*
Y441400D01*
D02*
G37*
G36*
X475589Y452029D02*
X301300D01*
X300715Y451913D01*
X300219Y451581D01*
X280218Y431581D01*
X279886Y431084D01*
X279770Y430499D01*
Y297575D01*
X278400D01*
Y292425D01*
X279770D01*
Y276701D01*
X279886Y276115D01*
X280218Y275619D01*
X297985Y257852D01*
X297800Y257161D01*
Y256239D01*
X298039Y255349D01*
X298499Y254551D01*
X299151Y253899D01*
X299949Y253438D01*
X300839Y253200D01*
X301761D01*
X302651Y253438D01*
X303449Y253899D01*
X304101Y254551D01*
X304271Y254845D01*
X304771Y254711D01*
Y244012D01*
X304887Y243426D01*
X305219Y242930D01*
X305715Y242599D01*
X306300Y242482D01*
X308146D01*
X311814Y238814D01*
X311814Y238814D01*
X314656Y235972D01*
X314804Y230536D01*
X314345Y230338D01*
X299229Y245454D01*
X298568Y245896D01*
X297787Y246051D01*
X271430D01*
X271239Y246513D01*
X276081Y251356D01*
X276413Y251852D01*
X276529Y252437D01*
Y292425D01*
X277900D01*
Y294500D01*
X272100D01*
Y292425D01*
X273471D01*
Y253070D01*
X266420Y246020D01*
X265794Y245896D01*
X265133Y245454D01*
X264691Y244792D01*
X264536Y244012D01*
X264691Y243231D01*
X265133Y242570D01*
X265794Y242128D01*
X266575Y241973D01*
X296943D01*
X314425Y224490D01*
Y221900D01*
X316500D01*
Y224799D01*
X317500D01*
Y221900D01*
X318571D01*
Y221400D01*
X314425D01*
Y215600D01*
X315471D01*
Y214700D01*
X315587Y214115D01*
X315919Y213619D01*
X316415Y213287D01*
X317000Y213171D01*
X317585Y213287D01*
X318071Y213611D01*
X318140Y213599D01*
X318571Y213451D01*
Y192699D01*
X314425D01*
Y191329D01*
X264399D01*
X263814Y191212D01*
X263318Y190881D01*
X260019Y187581D01*
X259687Y187085D01*
X259571Y186500D01*
Y178200D01*
X259431Y178029D01*
X185334D01*
X145529Y217833D01*
Y413503D01*
X145991Y413694D01*
X146044Y413642D01*
X146956Y413115D01*
X147973Y412843D01*
X149027D01*
X150044Y413115D01*
X150956Y413642D01*
X151701Y414387D01*
X152227Y415299D01*
X152500Y416316D01*
Y417369D01*
X152227Y418387D01*
X151701Y419299D01*
X150956Y420043D01*
X150044Y420570D01*
X149027Y420843D01*
X147973D01*
X146956Y420570D01*
X146044Y420043D01*
X145991Y419991D01*
X145529Y420182D01*
Y421552D01*
X146943Y422965D01*
X146956Y422958D01*
X147973Y422685D01*
X149027D01*
X150044Y422958D01*
X150956Y423484D01*
X151701Y424229D01*
X152227Y425141D01*
X152500Y426158D01*
Y427212D01*
X152227Y428229D01*
X151701Y429141D01*
X150956Y429886D01*
X150044Y430412D01*
X149027Y430685D01*
X147973D01*
X146956Y430412D01*
X146044Y429886D01*
X145299Y429141D01*
X144773Y428229D01*
X144500Y427212D01*
Y426158D01*
X144773Y425141D01*
X144780Y425128D01*
X142919Y423266D01*
X142587Y422770D01*
X142471Y422185D01*
Y217200D01*
X142587Y216615D01*
X142919Y216119D01*
X183619Y175419D01*
X184115Y175087D01*
X184700Y174971D01*
X331600D01*
X332185Y175087D01*
X332681Y175419D01*
X343381Y186119D01*
X343713Y186615D01*
X343829Y187200D01*
Y200801D01*
X344329Y201008D01*
X346019Y199319D01*
X346515Y198987D01*
X347100Y198871D01*
X347299D01*
X347432Y198371D01*
X347073Y198163D01*
X346337Y197427D01*
X345817Y196526D01*
X345547Y195520D01*
Y194480D01*
X345817Y193474D01*
X346337Y192573D01*
X347073Y191837D01*
X347974Y191317D01*
X348980Y191047D01*
X350020D01*
X351026Y191317D01*
X351927Y191837D01*
X352663Y192573D01*
X353183Y193474D01*
X353453Y194480D01*
Y195520D01*
X353183Y196526D01*
X352663Y197427D01*
X351927Y198163D01*
X351568Y198371D01*
X351701Y198871D01*
X351900D01*
X352485Y198987D01*
X352981Y199319D01*
X359034Y205371D01*
X359366Y205868D01*
X359482Y206453D01*
Y411347D01*
X359366Y411933D01*
X359034Y412429D01*
X349215Y422248D01*
X349400Y422939D01*
Y423861D01*
X349162Y424751D01*
X348701Y425549D01*
X348049Y426201D01*
X347582Y426471D01*
X347715Y426971D01*
X358467D01*
X393519Y391919D01*
X394015Y391587D01*
X394600Y391471D01*
X402650D01*
Y391016D01*
X408980D01*
Y393583D01*
X409442Y393774D01*
X413225Y389991D01*
X413033Y389529D01*
X408980D01*
Y389984D01*
X402650D01*
Y386016D01*
X408980D01*
Y386471D01*
X413167D01*
X416805Y382833D01*
Y312865D01*
X416922Y312280D01*
X417253Y311784D01*
X417749Y311452D01*
X418335Y311336D01*
X418545Y311378D01*
X419045Y310981D01*
Y237429D01*
X350569Y168953D01*
X345547D01*
Y161047D01*
X353453D01*
Y166069D01*
X422527Y235143D01*
X422969Y235804D01*
X423124Y236585D01*
Y381016D01*
X425321D01*
X485619Y320718D01*
X485925Y320513D01*
Y318900D01*
X488000D01*
Y321799D01*
Y324699D01*
X485964D01*
X428665Y381997D01*
Y382500D01*
X425500D01*
Y383000D01*
X425000D01*
Y384984D01*
X423124D01*
Y385015D01*
X423024Y385516D01*
X423377Y386016D01*
X428665D01*
Y386471D01*
X438566D01*
X440919Y384119D01*
X441415Y383787D01*
X442000Y383671D01*
X479000D01*
X479075Y383685D01*
X479150Y383678D01*
X479365Y383743D01*
X479585Y383787D01*
X479648Y383829D01*
X479721Y383851D01*
X479895Y383994D01*
X480081Y384119D01*
X480124Y384182D01*
X480183Y384230D01*
X480288Y384428D01*
X480413Y384615D01*
X480428Y384689D01*
X480464Y384756D01*
X480719Y385600D01*
X482575D01*
Y391400D01*
X477425D01*
Y386729D01*
X455575D01*
Y391900D01*
X450425D01*
Y390529D01*
X441734D01*
X438181Y394081D01*
X437685Y394413D01*
X437100Y394529D01*
X428665D01*
Y394984D01*
X422335D01*
Y391235D01*
X421835Y391028D01*
X419729Y393133D01*
Y397654D01*
X420229Y397987D01*
X422335Y397110D01*
Y396016D01*
X425223D01*
X425496Y395961D01*
X425775Y396016D01*
X428665D01*
Y399003D01*
X447634Y417971D01*
X453504D01*
Y414012D01*
X463496D01*
Y424971D01*
X473504D01*
Y420000D01*
X478500D01*
X483496D01*
Y424971D01*
X494566D01*
X510671Y408867D01*
Y353600D01*
X510787Y353015D01*
X511119Y352519D01*
X533319Y330319D01*
X533815Y329987D01*
X534400Y329871D01*
X565425D01*
Y327029D01*
X531134D01*
X508539Y349624D01*
Y388299D01*
X508384Y389080D01*
X507942Y389741D01*
X501442Y396241D01*
X500780Y396683D01*
X500000Y396838D01*
X482575D01*
Y397699D01*
X481529D01*
Y405700D01*
X481413Y406285D01*
X481081Y406781D01*
X480029Y407833D01*
Y414012D01*
X483496D01*
Y419000D01*
X478500D01*
X473504D01*
Y414012D01*
X476971D01*
Y407200D01*
X477087Y406615D01*
X477419Y406119D01*
X478471Y405066D01*
Y397699D01*
X477425D01*
Y396329D01*
X467334D01*
X467281Y396381D01*
X466785Y396712D01*
X466200Y396829D01*
X455575D01*
Y398199D01*
X453500D01*
Y395299D01*
Y392400D01*
X455575D01*
Y393770D01*
X465566D01*
X465619Y393718D01*
X466115Y393386D01*
X466700Y393270D01*
X477425D01*
Y391900D01*
X479500D01*
Y394799D01*
X480500D01*
Y391900D01*
X482575D01*
Y392760D01*
X499155D01*
X504461Y387455D01*
Y349500D01*
X504616Y348720D01*
X504971Y348189D01*
Y335600D01*
X505087Y335015D01*
X505419Y334519D01*
X505471Y334467D01*
Y324199D01*
X504425D01*
Y322829D01*
X498633D01*
X498581Y322881D01*
X498085Y323212D01*
X497500Y323329D01*
X491075D01*
Y324699D01*
X489000D01*
Y321799D01*
Y318900D01*
X491075D01*
Y320270D01*
X496867D01*
X496919Y320218D01*
X497415Y319886D01*
X498000Y319770D01*
X504425D01*
Y318400D01*
X506500D01*
Y321299D01*
X507000D01*
Y321799D01*
X509575D01*
Y324199D01*
X508529D01*
Y335100D01*
X508413Y335685D01*
X508081Y336181D01*
X508029Y336233D01*
Y345154D01*
X508491Y345346D01*
X529419Y324419D01*
X529915Y324087D01*
X530500Y323971D01*
X565425D01*
Y320169D01*
X566471D01*
Y317533D01*
X563419Y314481D01*
X563410Y314469D01*
X563398Y314460D01*
X563245Y314221D01*
X563087Y313985D01*
X563084Y313970D01*
X563076Y313958D01*
X563026Y313679D01*
X562971Y313400D01*
X562973Y313385D01*
X562971Y313370D01*
X563628Y279428D01*
Y251370D01*
X563744Y250785D01*
X564076Y250289D01*
X564572Y249957D01*
X565157Y249841D01*
X565743Y249957D01*
X566239Y250289D01*
X566570Y250785D01*
X566687Y251370D01*
Y279443D01*
X566684Y279457D01*
X566686Y279472D01*
X566241Y302489D01*
X566591Y302847D01*
X570575D01*
Y310914D01*
X570881Y311119D01*
X572181Y312419D01*
X572513Y312915D01*
X572629Y313500D01*
Y331400D01*
X572513Y331985D01*
X572181Y332481D01*
X571685Y332813D01*
X571100Y332929D01*
X535034D01*
X513729Y354234D01*
Y376559D01*
X514229Y376796D01*
X514849Y376438D01*
X515739Y376200D01*
X516661D01*
X517551Y376438D01*
X518349Y376899D01*
X519001Y377551D01*
X519358Y378171D01*
X556466D01*
X580600Y354037D01*
X580408Y353575D01*
X580400D01*
Y348999D01*
X580163Y348757D01*
X579980Y348639D01*
X579900Y348675D01*
Y353575D01*
X574100D01*
Y353294D01*
X552550D01*
X548022Y357823D01*
X547277Y358320D01*
X546400Y358494D01*
X532885D01*
X532008Y358320D01*
X531263Y357823D01*
X526892Y353452D01*
X526712Y353500D01*
X525658D01*
X524641Y353227D01*
X523729Y352701D01*
X522984Y351956D01*
X522458Y351044D01*
X522185Y350027D01*
Y348973D01*
X522458Y347956D01*
X522984Y347044D01*
X523729Y346299D01*
X524641Y345773D01*
X525658Y345500D01*
X526712D01*
X527729Y345773D01*
X528641Y346299D01*
X529386Y347044D01*
X529912Y347956D01*
X530185Y348973D01*
Y350027D01*
X530137Y350207D01*
X533836Y353906D01*
X545449D01*
X549978Y349378D01*
X550722Y348881D01*
X551600Y348706D01*
X574100D01*
Y348425D01*
X574416D01*
X574733Y348039D01*
X574706Y347900D01*
X574881Y347022D01*
X575378Y346278D01*
X577878Y343778D01*
X578622Y343281D01*
X579500Y343106D01*
X589100D01*
X589978Y343281D01*
X590722Y343778D01*
X595650Y348706D01*
X600512D01*
Y346004D01*
X609188D01*
X609379Y345542D01*
X608867Y345029D01*
X600000D01*
X599415Y344913D01*
X598919Y344581D01*
X583761Y329424D01*
X583430Y328928D01*
X583313Y328343D01*
Y256071D01*
X582937Y255971D01*
X581811Y255321D01*
X580892Y254401D01*
X580242Y253276D01*
X580171Y253012D01*
X579671D01*
X579601Y253276D01*
X578951Y254401D01*
X578031Y255321D01*
X576906Y255971D01*
X575650Y256307D01*
X574350D01*
X573094Y255971D01*
X571969Y255321D01*
X571049Y254401D01*
X570399Y253276D01*
X570063Y252020D01*
Y250720D01*
X570399Y249464D01*
X570594Y249127D01*
X568896Y247429D01*
X556234D01*
X539029Y264633D01*
Y304425D01*
X540400D01*
Y309575D01*
X534600D01*
Y304425D01*
X535971D01*
Y264000D01*
X536087Y263415D01*
X536419Y262919D01*
X554519Y244819D01*
X555015Y244487D01*
X555600Y244371D01*
X569530D01*
X570115Y244487D01*
X570611Y244819D01*
X572757Y246964D01*
X573094Y246769D01*
X574350Y246433D01*
X575650D01*
X576906Y246769D01*
X578031Y247419D01*
X578951Y248339D01*
X579601Y249464D01*
X579671Y249728D01*
X580171D01*
X580242Y249464D01*
X580892Y248339D01*
X581811Y247419D01*
X582937Y246769D01*
X584193Y246433D01*
X585493D01*
X586748Y246769D01*
X587874Y247419D01*
X588793Y248339D01*
X589443Y249464D01*
X589780Y250720D01*
Y252020D01*
X589443Y253276D01*
X588793Y254401D01*
X587874Y255321D01*
X586748Y255971D01*
X586372Y256071D01*
Y327709D01*
X600633Y341971D01*
X609500D01*
X610085Y342087D01*
X610581Y342419D01*
X613081Y344919D01*
X613413Y345415D01*
X613529Y346000D01*
Y379493D01*
X613413Y380078D01*
X613081Y380574D01*
X596874Y396781D01*
Y405498D01*
X579126D01*
Y391687D01*
X596874D01*
Y391802D01*
X597336Y391994D01*
X610471Y378859D01*
Y355996D01*
X600512D01*
Y353294D01*
X594700D01*
X593822Y353119D01*
X593078Y352622D01*
X588150Y347694D01*
X580450D01*
X580091Y348053D01*
X580426Y348425D01*
X580889Y348425D01*
X586199D01*
Y353575D01*
X584814D01*
X584712Y354085D01*
X584381Y354581D01*
X558181Y380781D01*
X557685Y381113D01*
X557099Y381229D01*
X519358D01*
X519001Y381849D01*
X518349Y382501D01*
X517551Y382962D01*
X516661Y383200D01*
X515739D01*
X514849Y382962D01*
X514229Y382604D01*
X513729Y382840D01*
Y391179D01*
X530874D01*
Y404990D01*
X513729D01*
Y409500D01*
X513880Y409683D01*
X530874D01*
Y423494D01*
X513126D01*
Y418118D01*
X510134D01*
X476670Y451581D01*
X476174Y451913D01*
X475589Y452029D01*
D02*
G37*
G36*
X270027Y420843D02*
X268973D01*
X267956Y420570D01*
X267044Y420043D01*
X266299Y419299D01*
X265773Y418387D01*
X265500Y417369D01*
Y416316D01*
X265773Y415299D01*
X265780Y415286D01*
X260619Y410124D01*
X260287Y409628D01*
X260171Y409043D01*
Y265361D01*
X252085Y257276D01*
X251748Y257471D01*
X250493Y257807D01*
X249193D01*
X247937Y257471D01*
X246811Y256821D01*
X245892Y255901D01*
X245242Y254776D01*
X245171Y254512D01*
X244671D01*
X244601Y254776D01*
X243951Y255901D01*
X243031Y256821D01*
X241906Y257471D01*
X240650Y257807D01*
X239350D01*
X238094Y257471D01*
X236969Y256821D01*
X236049Y255901D01*
X235399Y254776D01*
X235063Y253520D01*
Y252220D01*
X235399Y250964D01*
X236049Y249839D01*
X236969Y248919D01*
X238094Y248269D01*
X239350Y247933D01*
X240650D01*
X241906Y248269D01*
X243031Y248919D01*
X243951Y249839D01*
X244601Y250964D01*
X244671Y251228D01*
X245171D01*
X245242Y250964D01*
X245892Y249839D01*
X246811Y248919D01*
X247937Y248269D01*
X249193Y247933D01*
X250493D01*
X251748Y248269D01*
X252874Y248919D01*
X253793Y249839D01*
X254443Y250964D01*
X254780Y252220D01*
Y253520D01*
X254443Y254776D01*
X254248Y255113D01*
X262781Y263646D01*
X263113Y264142D01*
X263229Y264727D01*
Y408409D01*
X267943Y413123D01*
X267956Y413115D01*
X268973Y412843D01*
X270027D01*
X271044Y413115D01*
X271956Y413642D01*
X272701Y414387D01*
X273227Y415299D01*
X273500Y416316D01*
Y417369D01*
X273227Y418387D01*
X272701Y419299D01*
X271956Y420043D01*
X271044Y420570D01*
X270027Y420843D01*
D02*
G37*
G36*
X206027D02*
X204973D01*
X203956Y420570D01*
X203044Y420043D01*
X202299Y419299D01*
X201773Y418387D01*
X201500Y417369D01*
Y416316D01*
X201773Y415299D01*
X202299Y414387D01*
X203044Y413642D01*
X203956Y413115D01*
X204973Y412843D01*
X206027D01*
X207044Y413115D01*
X207956Y413642D01*
X208701Y414387D01*
X209227Y415299D01*
X209500Y416316D01*
Y417369D01*
X209227Y418387D01*
X208701Y419299D01*
X207956Y420043D01*
X207044Y420570D01*
X206027Y420843D01*
D02*
G37*
G36*
X596874Y424002D02*
X579126D01*
Y410191D01*
X596874D01*
Y424002D01*
D02*
G37*
G36*
X661874Y423494D02*
X644126D01*
Y409683D01*
X661874D01*
Y423494D01*
D02*
G37*
G36*
X452500Y398199D02*
X450425D01*
Y395799D01*
X452500D01*
Y398199D01*
D02*
G37*
G36*
Y394799D02*
X450425D01*
Y392400D01*
X452500D01*
Y394799D01*
D02*
G37*
G36*
X661874Y404990D02*
X644126D01*
Y391179D01*
X661874D01*
Y404990D01*
D02*
G37*
G36*
X428665Y384984D02*
X426000D01*
Y383500D01*
X428665D01*
Y384984D01*
D02*
G37*
G36*
X408980D02*
X402650D01*
Y381016D01*
X408980D01*
X408980Y381016D01*
Y381016D01*
X409361Y380753D01*
X409439Y380680D01*
X409300Y380161D01*
Y379239D01*
X409539Y378349D01*
X409999Y377551D01*
X410651Y376899D01*
X411449Y376438D01*
X412339Y376200D01*
X413261D01*
X414151Y376438D01*
X414949Y376899D01*
X415601Y377551D01*
X416061Y378349D01*
X416300Y379239D01*
Y380161D01*
X416061Y381051D01*
X415601Y381849D01*
X414949Y382501D01*
X414151Y382962D01*
X413261Y383200D01*
X412339D01*
X411648Y383015D01*
X410581Y384081D01*
X410085Y384413D01*
X409500Y384529D01*
X408980D01*
Y384984D01*
D02*
G37*
G36*
X241575Y366900D02*
X239500D01*
Y364500D01*
X241575D01*
Y366900D01*
D02*
G37*
G36*
X453453Y348953D02*
X445547D01*
Y341047D01*
X453453D01*
Y348953D01*
D02*
G37*
G36*
X191575Y431701D02*
X189000D01*
X186425D01*
Y429301D01*
X187471D01*
Y423500D01*
X187587Y422915D01*
X187919Y422419D01*
X203461Y406876D01*
Y368000D01*
X203616Y367220D01*
X204058Y366558D01*
X208058Y362558D01*
X208720Y362116D01*
X209500Y361961D01*
X236425D01*
Y361100D01*
X237471D01*
Y352000D01*
X237476Y351971D01*
X237472Y351941D01*
X237857Y341935D01*
X237510Y341575D01*
X236600D01*
Y339500D01*
X242400D01*
Y341575D01*
X240932D01*
X240529Y352029D01*
Y361100D01*
X241575D01*
Y363500D01*
X239000D01*
Y364000D01*
X238500D01*
Y366900D01*
X236425D01*
Y366039D01*
X210345D01*
X207539Y368845D01*
Y407000D01*
X207384Y407780D01*
X206942Y408442D01*
X206280Y408884D01*
X205654Y409009D01*
X190529Y424133D01*
Y429301D01*
X191575D01*
Y431701D01*
D02*
G37*
G36*
X242400Y338500D02*
X240000D01*
Y336425D01*
X242400D01*
Y338500D01*
D02*
G37*
G36*
X239000D02*
X236600D01*
Y336425D01*
X239000D01*
Y338500D01*
D02*
G37*
G36*
X611488Y335996D02*
X606500D01*
Y331500D01*
X611488D01*
Y335996D01*
D02*
G37*
G36*
X605500D02*
X600512D01*
Y331500D01*
X605500D01*
Y335996D01*
D02*
G37*
G36*
X450020Y338953D02*
X448980D01*
X447974Y338683D01*
X447073Y338163D01*
X446337Y337427D01*
X445817Y336526D01*
X445547Y335520D01*
Y334480D01*
X445817Y333474D01*
X446337Y332573D01*
X447073Y331837D01*
X447974Y331317D01*
X448980Y331047D01*
X450020D01*
X451026Y331317D01*
X451927Y331837D01*
X452663Y332573D01*
X453183Y333474D01*
X453453Y334480D01*
Y335520D01*
X453183Y336526D01*
X452663Y337427D01*
X451927Y338163D01*
X451026Y338683D01*
X450020Y338953D01*
D02*
G37*
G36*
X509575Y320799D02*
X507500D01*
Y318400D01*
X509575D01*
Y320799D01*
D02*
G37*
G36*
X450020Y328953D02*
X448980D01*
X447974Y328683D01*
X447073Y328163D01*
X446337Y327427D01*
X445817Y326526D01*
X445547Y325520D01*
Y324480D01*
X445817Y323474D01*
X446337Y322573D01*
X447073Y321837D01*
X447606Y321529D01*
X447510Y321076D01*
X447479Y321025D01*
X446915Y320913D01*
X446419Y320581D01*
X443919Y318081D01*
X443587Y317585D01*
X443471Y317000D01*
Y299500D01*
X443587Y298915D01*
X443919Y298419D01*
X445816Y296522D01*
X445547Y295520D01*
Y294480D01*
X445817Y293474D01*
X446337Y292573D01*
X447073Y291837D01*
X447974Y291317D01*
X448980Y291047D01*
X450020D01*
X451026Y291317D01*
X451927Y291837D01*
X452663Y292573D01*
X453183Y293474D01*
X453453Y294480D01*
Y295520D01*
X453183Y296526D01*
X452663Y297427D01*
X451927Y298163D01*
X451026Y298683D01*
X450020Y298953D01*
X448980D01*
X447978Y298685D01*
X446529Y300133D01*
Y301727D01*
X446991Y301919D01*
X447073Y301837D01*
X447974Y301317D01*
X448980Y301047D01*
X450020D01*
X451022Y301315D01*
X485171Y267166D01*
Y247575D01*
X483801D01*
Y242425D01*
X489600D01*
Y247575D01*
X488230D01*
Y267799D01*
X488114Y268385D01*
X487782Y268881D01*
X453185Y303478D01*
X453453Y304480D01*
Y305520D01*
X453183Y306526D01*
X452663Y307427D01*
X451927Y308163D01*
X451026Y308683D01*
X450020Y308953D01*
X448980D01*
X447974Y308683D01*
X447073Y308163D01*
X446991Y308081D01*
X446529Y308273D01*
Y311727D01*
X446991Y311919D01*
X447073Y311837D01*
X447974Y311317D01*
X448980Y311047D01*
X450020D01*
X451022Y311315D01*
X451719Y310619D01*
X452215Y310287D01*
X452800Y310171D01*
X506000D01*
X506585Y310287D01*
X507081Y310619D01*
X508081Y311619D01*
X508403Y312100D01*
X509575D01*
Y317900D01*
X504425D01*
Y313229D01*
X491075D01*
Y318400D01*
X485925D01*
Y317029D01*
X469633D01*
X466081Y320581D01*
X465585Y320913D01*
X465000Y321029D01*
X451528D01*
X451394Y321529D01*
X451927Y321837D01*
X452663Y322573D01*
X453183Y323474D01*
X453453Y324480D01*
Y325520D01*
X453183Y326526D01*
X452663Y327427D01*
X451927Y328163D01*
X451026Y328683D01*
X450020Y328953D01*
D02*
G37*
G36*
X534100Y309575D02*
X528301D01*
Y304425D01*
X534100D01*
Y309575D01*
D02*
G37*
G36*
X269500Y408529D02*
X268915Y408413D01*
X268419Y408081D01*
X268087Y407585D01*
X267971Y407000D01*
X268087Y406415D01*
X268419Y405919D01*
X273471Y400867D01*
Y297575D01*
X272100D01*
Y295500D01*
X277900D01*
Y297575D01*
X276529D01*
Y401500D01*
X276413Y402085D01*
X276081Y402581D01*
X270581Y408081D01*
X270085Y408413D01*
X269500Y408529D01*
D02*
G37*
G36*
X450020Y288953D02*
X448980D01*
X447974Y288683D01*
X447073Y288163D01*
X446337Y287427D01*
X445817Y286526D01*
X445547Y285520D01*
Y284480D01*
X445817Y283474D01*
X446337Y282573D01*
X447073Y281837D01*
X447974Y281317D01*
X448980Y281047D01*
X450020D01*
X451026Y281317D01*
X451927Y281837D01*
X452663Y282573D01*
X453183Y283474D01*
X453453Y284480D01*
Y285520D01*
X453183Y286526D01*
X452663Y287427D01*
X451927Y288163D01*
X451026Y288683D01*
X450020Y288953D01*
D02*
G37*
G36*
Y278953D02*
X448980D01*
X447974Y278683D01*
X447073Y278163D01*
X446337Y277427D01*
X445817Y276526D01*
X445547Y275520D01*
Y274480D01*
X445817Y273474D01*
X446337Y272573D01*
X447073Y271837D01*
X447974Y271317D01*
X448980Y271047D01*
X450020D01*
X451026Y271317D01*
X451927Y271837D01*
X452663Y272573D01*
X453183Y273474D01*
X453453Y274480D01*
Y275520D01*
X453183Y276526D01*
X452663Y277427D01*
X451927Y278163D01*
X451026Y278683D01*
X450020Y278953D01*
D02*
G37*
G36*
Y268953D02*
X448980D01*
X447974Y268683D01*
X447073Y268163D01*
X446337Y267427D01*
X445817Y266526D01*
X445547Y265520D01*
Y264480D01*
X445817Y263474D01*
X446337Y262573D01*
X447073Y261837D01*
X447974Y261317D01*
X448980Y261047D01*
X450020D01*
X451026Y261317D01*
X451927Y261837D01*
X452663Y262573D01*
X453183Y263474D01*
X453453Y264480D01*
Y265520D01*
X453183Y266526D01*
X452663Y267427D01*
X451927Y268163D01*
X451026Y268683D01*
X450020Y268953D01*
D02*
G37*
G36*
Y258953D02*
X448980D01*
X447974Y258683D01*
X447073Y258163D01*
X446337Y257427D01*
X445817Y256526D01*
X445547Y255520D01*
Y254480D01*
X445817Y253474D01*
X446337Y252573D01*
X447073Y251837D01*
X447974Y251317D01*
X448980Y251047D01*
X450020D01*
X451026Y251317D01*
X451927Y251837D01*
X452663Y252573D01*
X453183Y253474D01*
X453453Y254480D01*
Y255520D01*
X453183Y256526D01*
X452663Y257427D01*
X451927Y258163D01*
X451026Y258683D01*
X450020Y258953D01*
D02*
G37*
G36*
X495900Y247575D02*
X493500D01*
Y245500D01*
X495900D01*
Y247575D01*
D02*
G37*
G36*
X492500D02*
X490100D01*
Y245500D01*
X492500D01*
Y247575D01*
D02*
G37*
G36*
X371261Y353200D02*
X370339D01*
X369449Y352961D01*
X368651Y352501D01*
X367999Y351849D01*
X367538Y351051D01*
X367300Y350161D01*
Y349239D01*
X367538Y348349D01*
X367999Y347551D01*
X368651Y346899D01*
X369271Y346542D01*
Y249459D01*
X368651Y249101D01*
X367999Y248449D01*
X367538Y247651D01*
X367300Y246761D01*
Y245839D01*
X367538Y244949D01*
X367999Y244151D01*
X368651Y243499D01*
X369449Y243039D01*
X370339Y242800D01*
X371261D01*
X372151Y243039D01*
X372949Y243499D01*
X373601Y244151D01*
X374061Y244949D01*
X374300Y245839D01*
Y246761D01*
X374061Y247651D01*
X373601Y248449D01*
X372949Y249101D01*
X372329Y249459D01*
Y346542D01*
X372949Y346899D01*
X373601Y347551D01*
X374061Y348349D01*
X374300Y349239D01*
Y350161D01*
X374061Y351051D01*
X373601Y351849D01*
X372949Y352501D01*
X372151Y352961D01*
X371261Y353200D01*
D02*
G37*
G36*
X450020Y248953D02*
X448980D01*
X447974Y248683D01*
X447073Y248163D01*
X446337Y247427D01*
X445817Y246526D01*
X445547Y245520D01*
Y244480D01*
X445817Y243474D01*
X446337Y242573D01*
X447073Y241837D01*
X447974Y241317D01*
X448980Y241047D01*
X450020D01*
X451026Y241317D01*
X451927Y241837D01*
X452663Y242573D01*
X453183Y243474D01*
X453453Y244480D01*
Y245520D01*
X453183Y246526D01*
X452663Y247427D01*
X451927Y248163D01*
X451026Y248683D01*
X450020Y248953D01*
D02*
G37*
G36*
X611488Y330500D02*
X606000D01*
X600512D01*
Y326004D01*
X604471D01*
Y247570D01*
X600493Y243593D01*
X600162Y243097D01*
X600045Y242512D01*
X600162Y241927D01*
X600493Y241430D01*
X600989Y241099D01*
X601575Y240982D01*
X602160Y241099D01*
X602656Y241430D01*
X607081Y245856D01*
X607413Y246352D01*
X607529Y246937D01*
Y326004D01*
X611488D01*
Y330500D01*
D02*
G37*
G36*
X450020Y238953D02*
X448980D01*
X447974Y238683D01*
X447073Y238163D01*
X446337Y237427D01*
X445817Y236526D01*
X445547Y235520D01*
Y234480D01*
X445817Y233474D01*
X446337Y232573D01*
X447073Y231837D01*
X447974Y231317D01*
X448980Y231047D01*
X450020D01*
X451026Y231317D01*
X451927Y231837D01*
X452663Y232573D01*
X453183Y233474D01*
X453453Y234480D01*
Y235520D01*
X453183Y236526D01*
X452663Y237427D01*
X451927Y238163D01*
X451026Y238683D01*
X450020Y238953D01*
D02*
G37*
G36*
Y228953D02*
X448980D01*
X447974Y228683D01*
X447073Y228163D01*
X446337Y227427D01*
X445817Y226526D01*
X445547Y225520D01*
Y224480D01*
X445817Y223474D01*
X446337Y222573D01*
X447073Y221837D01*
X447974Y221317D01*
X448980Y221047D01*
X450020D01*
X451026Y221317D01*
X451927Y221837D01*
X452663Y222573D01*
X453183Y223474D01*
X453453Y224480D01*
Y225520D01*
X453183Y226526D01*
X452663Y227427D01*
X451927Y228163D01*
X451026Y228683D01*
X450020Y228953D01*
D02*
G37*
G36*
Y218953D02*
X448980D01*
X447974Y218683D01*
X447073Y218163D01*
X446337Y217427D01*
X445817Y216526D01*
X445547Y215520D01*
Y214480D01*
X445817Y213474D01*
X446337Y212573D01*
X447073Y211837D01*
X447974Y211317D01*
X448980Y211047D01*
X450020D01*
X451026Y211317D01*
X451927Y211837D01*
X452663Y212573D01*
X453183Y213474D01*
X453453Y214480D01*
Y215520D01*
X453183Y216526D01*
X452663Y217427D01*
X451927Y218163D01*
X451026Y218683D01*
X450020Y218953D01*
D02*
G37*
G36*
X495900Y244500D02*
X493000D01*
X490100D01*
Y242425D01*
X491488D01*
X491587Y241927D01*
X491919Y241430D01*
X492415Y241099D01*
X493000Y240982D01*
X546896D01*
Y215586D01*
X539941Y208631D01*
X539581Y208969D01*
X540231Y210094D01*
X540567Y211350D01*
Y212650D01*
X540231Y213906D01*
X539581Y215031D01*
X538661Y215951D01*
X537536Y216601D01*
X537272Y216671D01*
Y217171D01*
X537536Y217242D01*
X538661Y217892D01*
X539581Y218811D01*
X540231Y219937D01*
X540567Y221193D01*
Y222493D01*
X540231Y223748D01*
X539581Y224874D01*
X538661Y225793D01*
X537536Y226443D01*
X536280Y226780D01*
X534980D01*
X533724Y226443D01*
X532599Y225793D01*
X531679Y224874D01*
X531029Y223748D01*
X530693Y222493D01*
Y221193D01*
X531029Y219937D01*
X531679Y218811D01*
X532599Y217892D01*
X533724Y217242D01*
X533988Y217171D01*
Y216671D01*
X533724Y216601D01*
X532599Y215951D01*
X531679Y215031D01*
X531029Y213906D01*
X530693Y212650D01*
Y211350D01*
X531029Y210094D01*
X531679Y208969D01*
X532599Y208049D01*
X533724Y207399D01*
X534980Y207063D01*
X536280D01*
X537536Y207399D01*
X538661Y208049D01*
X538999Y207689D01*
X534549Y203239D01*
X534217Y202743D01*
X534101Y202157D01*
X534217Y201572D01*
X534549Y201076D01*
X546896Y188729D01*
Y181488D01*
X547012Y180903D01*
X547344Y180407D01*
X547840Y180075D01*
X548425Y179959D01*
X549011Y180075D01*
X549507Y180407D01*
X549838Y180903D01*
X549955Y181488D01*
Y189362D01*
X549838Y189947D01*
X549507Y190444D01*
X537793Y202157D01*
X549507Y213871D01*
X549838Y214367D01*
X549955Y214953D01*
Y242512D01*
X549838Y243097D01*
X549507Y243593D01*
X549011Y243925D01*
X548425Y244041D01*
X495900D01*
Y244500D01*
D02*
G37*
G36*
X450020Y208953D02*
X448980D01*
X447974Y208683D01*
X447073Y208163D01*
X446337Y207427D01*
X445817Y206526D01*
X445547Y205520D01*
Y204480D01*
X445817Y203474D01*
X446337Y202573D01*
X447073Y201837D01*
X447974Y201317D01*
X448980Y201047D01*
X450020D01*
X451026Y201317D01*
X451927Y201837D01*
X452663Y202573D01*
X453183Y203474D01*
X453453Y204480D01*
Y205520D01*
X453183Y206526D01*
X452663Y207427D01*
X451927Y208163D01*
X451026Y208683D01*
X450020Y208953D01*
D02*
G37*
G36*
Y198953D02*
X448980D01*
X447974Y198683D01*
X447073Y198163D01*
X446337Y197427D01*
X445817Y196526D01*
X445547Y195520D01*
Y194480D01*
X445817Y193474D01*
X446337Y192573D01*
X447073Y191837D01*
X447974Y191317D01*
X448980Y191047D01*
X450020D01*
X451026Y191317D01*
X451927Y191837D01*
X452663Y192573D01*
X453183Y193474D01*
X453453Y194480D01*
Y195520D01*
X453183Y196526D01*
X452663Y197427D01*
X451927Y198163D01*
X451026Y198683D01*
X450020Y198953D01*
D02*
G37*
G36*
Y188953D02*
X448980D01*
X447974Y188683D01*
X447073Y188163D01*
X446337Y187427D01*
X445817Y186526D01*
X445547Y185520D01*
Y184480D01*
X445817Y183474D01*
X446337Y182573D01*
X447073Y181837D01*
X447974Y181317D01*
X448980Y181047D01*
X450020D01*
X451026Y181317D01*
X451927Y181837D01*
X452663Y182573D01*
X453183Y183474D01*
X453453Y184480D01*
Y185520D01*
X453183Y186526D01*
X452663Y187427D01*
X451927Y188163D01*
X451026Y188683D01*
X450020Y188953D01*
D02*
G37*
G36*
X350020D02*
X348980D01*
X347974Y188683D01*
X347073Y188163D01*
X346337Y187427D01*
X345817Y186526D01*
X345547Y185520D01*
Y184480D01*
X345817Y183474D01*
X346337Y182573D01*
X347073Y181837D01*
X347974Y181317D01*
X348980Y181047D01*
X350020D01*
X351026Y181317D01*
X351927Y181837D01*
X352663Y182573D01*
X353183Y183474D01*
X353453Y184480D01*
Y185520D01*
X353183Y186526D01*
X352663Y187427D01*
X351927Y188163D01*
X351026Y188683D01*
X350020Y188953D01*
D02*
G37*
G36*
X450020Y178953D02*
X448980D01*
X447974Y178683D01*
X447073Y178163D01*
X446337Y177427D01*
X445817Y176526D01*
X445547Y175520D01*
Y174480D01*
X445817Y173474D01*
X446337Y172573D01*
X447073Y171837D01*
X447974Y171317D01*
X448980Y171047D01*
X450020D01*
X451026Y171317D01*
X451927Y171837D01*
X452663Y172573D01*
X453183Y173474D01*
X453453Y174480D01*
Y175520D01*
X453183Y176526D01*
X452663Y177427D01*
X451927Y178163D01*
X451026Y178683D01*
X450020Y178953D01*
D02*
G37*
G36*
X350020D02*
X348980D01*
X347974Y178683D01*
X347073Y178163D01*
X346337Y177427D01*
X345817Y176526D01*
X345547Y175520D01*
Y174480D01*
X345817Y173474D01*
X346337Y172573D01*
X347073Y171837D01*
X347974Y171317D01*
X348980Y171047D01*
X350020D01*
X351026Y171317D01*
X351927Y171837D01*
X352663Y172573D01*
X353183Y173474D01*
X353453Y174480D01*
Y175520D01*
X353183Y176526D01*
X352663Y177427D01*
X351927Y178163D01*
X351026Y178683D01*
X350020Y178953D01*
D02*
G37*
%LPD*%
G36*
X217371Y256354D02*
Y229059D01*
X216751Y228701D01*
X216099Y228049D01*
X215638Y227251D01*
X215455Y226565D01*
X214955Y226630D01*
Y244012D01*
X214838Y244597D01*
X214507Y245093D01*
X214011Y245425D01*
X213425Y245541D01*
X212840Y245425D01*
X212344Y245093D01*
X212012Y244597D01*
X211896Y244012D01*
Y217086D01*
X204941Y210131D01*
X204581Y210469D01*
X205231Y211594D01*
X205567Y212850D01*
Y214150D01*
X205231Y215406D01*
X205036Y215743D01*
X208881Y219589D01*
X209213Y220085D01*
X209329Y220670D01*
Y248967D01*
X216909Y256546D01*
X217371Y256354D01*
D02*
G37*
G36*
X495433Y428493D02*
X495212Y428053D01*
X495189Y428029D01*
X460500D01*
X459915Y427913D01*
X459419Y427581D01*
X457419Y425581D01*
X457087Y425085D01*
X457068Y424988D01*
X453504D01*
Y421029D01*
X447000D01*
X446415Y420913D01*
X445919Y420581D01*
X425533Y400196D01*
X422739Y401360D01*
Y424099D01*
X422584Y424880D01*
X422142Y425541D01*
X417442Y430241D01*
X416780Y430683D01*
X416575Y430724D01*
Y431699D01*
X411425D01*
Y429648D01*
X409064Y428257D01*
X408872Y428085D01*
X408658Y427942D01*
X408578Y427822D01*
X408471Y427727D01*
X408359Y427494D01*
X408216Y427280D01*
X408188Y427139D01*
X408126Y427010D01*
X408111Y426753D01*
X408061Y426500D01*
Y399984D01*
X402650D01*
Y396016D01*
X404286D01*
Y394984D01*
X402650D01*
Y394529D01*
X395233D01*
X360181Y429581D01*
X359685Y429913D01*
X359100Y430029D01*
X343900D01*
X343315Y429913D01*
X342819Y429581D01*
X340819Y427581D01*
X340487Y427085D01*
X340371Y426500D01*
Y411126D01*
X336110D01*
Y399874D01*
X351890D01*
Y411126D01*
X343429D01*
Y420260D01*
X343929Y420496D01*
X344549Y420139D01*
X345439Y419900D01*
X346361D01*
X347052Y420085D01*
X356423Y410714D01*
Y297893D01*
X355961Y297701D01*
X352581Y301081D01*
X352135Y301380D01*
X352073Y301515D01*
X352025Y301935D01*
X352663Y302573D01*
X353183Y303474D01*
X353453Y304480D01*
Y305520D01*
X353183Y306526D01*
X352663Y307427D01*
X351927Y308163D01*
X351026Y308683D01*
X350020Y308953D01*
X348980D01*
X347974Y308683D01*
X347073Y308163D01*
X346337Y307427D01*
X345817Y306526D01*
X345547Y305520D01*
Y304480D01*
X345817Y303474D01*
X346337Y302573D01*
X346881Y302029D01*
X346673Y301529D01*
X318133D01*
X315029Y304633D01*
Y329100D01*
X316075D01*
Y330471D01*
X325500D01*
X326085Y330587D01*
X326581Y330919D01*
X330581Y334919D01*
X330913Y335415D01*
X331029Y336000D01*
Y413342D01*
X331649Y413699D01*
X332301Y414351D01*
X332762Y415149D01*
X333000Y416039D01*
Y416961D01*
X332762Y417851D01*
X332301Y418649D01*
X331649Y419301D01*
X330851Y419762D01*
X329961Y420000D01*
X329039D01*
X328149Y419762D01*
X327351Y419301D01*
X326699Y418649D01*
X326238Y417851D01*
X326000Y416961D01*
Y416039D01*
X326238Y415149D01*
X326699Y414351D01*
X327351Y413699D01*
X327971Y413342D01*
Y336633D01*
X324867Y333529D01*
X316075D01*
Y334900D01*
X310925D01*
Y329100D01*
X311971D01*
Y304000D01*
X312087Y303415D01*
X312419Y302919D01*
X316419Y298919D01*
X316915Y298587D01*
X317500Y298471D01*
X346673D01*
X346881Y297971D01*
X346337Y297427D01*
X345819Y296529D01*
X333300D01*
X332715Y296413D01*
X332219Y296081D01*
X332167Y296029D01*
X318900D01*
Y297075D01*
X313100D01*
Y291925D01*
X318900D01*
Y292971D01*
X332800D01*
X333385Y293087D01*
X333881Y293419D01*
X333933Y293471D01*
X345819D01*
X346337Y292573D01*
X347073Y291837D01*
X347974Y291317D01*
X348980Y291047D01*
X350020D01*
X351026Y291317D01*
X351927Y291837D01*
X352663Y292573D01*
X353183Y293474D01*
X353453Y294480D01*
Y295177D01*
X353953Y295384D01*
X354423Y294914D01*
Y269393D01*
X353961Y269201D01*
X352581Y270581D01*
X352085Y270913D01*
X351521Y271025D01*
X351490Y271076D01*
X351394Y271529D01*
X351927Y271837D01*
X352663Y272573D01*
X353183Y273474D01*
X353453Y274480D01*
Y275520D01*
X353183Y276526D01*
X352663Y277427D01*
X351927Y278163D01*
X351026Y278683D01*
X350020Y278953D01*
X348980D01*
X347974Y278683D01*
X347073Y278163D01*
X346337Y277427D01*
X345817Y276526D01*
X345547Y275520D01*
Y274480D01*
X345817Y273474D01*
X346337Y272573D01*
X347073Y271837D01*
X347606Y271529D01*
X347472Y271029D01*
X345500D01*
X344915Y270913D01*
X344419Y270581D01*
X341219Y267381D01*
X340887Y266885D01*
X340771Y266300D01*
Y187833D01*
X330966Y178029D01*
X263434D01*
X262629Y178833D01*
Y185866D01*
X265033Y188270D01*
X314425D01*
Y186900D01*
X318571D01*
Y186400D01*
X317500D01*
Y183500D01*
Y180600D01*
X319575D01*
Y182065D01*
X319685Y182087D01*
X320181Y182419D01*
X321181Y183419D01*
X321513Y183915D01*
X321629Y184500D01*
Y223500D01*
X321513Y224085D01*
X321181Y224581D01*
X319882Y225881D01*
X319575Y226086D01*
Y227699D01*
X318961D01*
X318711Y236894D01*
X318629Y237256D01*
X318557Y237619D01*
X318541Y237643D01*
X318535Y237670D01*
X318320Y237973D01*
X318115Y238281D01*
X316140Y240256D01*
X317000Y241116D01*
Y244500D01*
Y247400D01*
X314925D01*
Y244809D01*
X313256Y243140D01*
X310942Y245454D01*
X310280Y245896D01*
X309500Y246051D01*
X308720Y245896D01*
X308329Y245635D01*
X307829Y245834D01*
Y291925D01*
X312600D01*
Y297075D01*
X307829D01*
Y334466D01*
X310134Y336770D01*
X310925D01*
Y335400D01*
X313000D01*
Y338299D01*
Y341199D01*
X310925D01*
Y339829D01*
X309500D01*
X308915Y339712D01*
X308419Y339381D01*
X305219Y336181D01*
X304887Y335684D01*
X304771Y335099D01*
Y258689D01*
X304271Y258555D01*
X304101Y258849D01*
X303449Y259501D01*
X302651Y259962D01*
X301761Y260200D01*
X300839D01*
X300148Y260015D01*
X282829Y277334D01*
Y292425D01*
X284199D01*
Y297575D01*
X282829D01*
Y429866D01*
X301934Y448971D01*
X474955D01*
X495433Y428493D01*
D02*
G37*
%LPC*%
G36*
X351890Y387307D02*
X336110D01*
Y376055D01*
X342471D01*
Y343159D01*
X341851Y342801D01*
X341199Y342149D01*
X340739Y341351D01*
X340500Y340461D01*
Y339539D01*
X340739Y338649D01*
X341199Y337851D01*
X341851Y337199D01*
X342649Y336738D01*
X343539Y336500D01*
X344461D01*
X345351Y336738D01*
X345381Y336756D01*
X345546Y336669D01*
X345786Y336413D01*
X345547Y335520D01*
Y334480D01*
X345817Y333474D01*
X346337Y332573D01*
X347073Y331837D01*
X347974Y331317D01*
X348980Y331047D01*
X350020D01*
X351026Y331317D01*
X351927Y331837D01*
X352663Y332573D01*
X353183Y333474D01*
X353453Y334480D01*
Y335520D01*
X353183Y336526D01*
X352663Y337427D01*
X351927Y338163D01*
X351026Y338683D01*
X350020Y338953D01*
X348980D01*
X347974Y338683D01*
X347754Y338556D01*
X347325Y338886D01*
X347500Y339539D01*
Y340461D01*
X347325Y341114D01*
X347754Y341444D01*
X347974Y341317D01*
X348980Y341047D01*
X350020D01*
X351026Y341317D01*
X351927Y341837D01*
X352663Y342573D01*
X353183Y343474D01*
X353453Y344480D01*
Y345520D01*
X353183Y346526D01*
X352663Y347427D01*
X351927Y348163D01*
X351026Y348683D01*
X350020Y348953D01*
X348980D01*
X347974Y348683D01*
X347073Y348163D01*
X346337Y347427D01*
X346029Y346894D01*
X345529Y347028D01*
Y376055D01*
X351890D01*
Y387307D01*
D02*
G37*
G36*
X316075Y341199D02*
X314000D01*
Y338799D01*
X316075D01*
Y341199D01*
D02*
G37*
G36*
Y337799D02*
X314000D01*
Y335400D01*
X316075D01*
Y337799D01*
D02*
G37*
G36*
X350020Y328953D02*
X348980D01*
X347974Y328683D01*
X347073Y328163D01*
X346337Y327427D01*
X345817Y326526D01*
X345547Y325520D01*
Y324480D01*
X345817Y323474D01*
X346337Y322573D01*
X347073Y321837D01*
X347974Y321317D01*
X348980Y321047D01*
X350020D01*
X351026Y321317D01*
X351927Y321837D01*
X352663Y322573D01*
X353183Y323474D01*
X353453Y324480D01*
Y325520D01*
X353183Y326526D01*
X352663Y327427D01*
X351927Y328163D01*
X351026Y328683D01*
X350020Y328953D01*
D02*
G37*
G36*
Y318953D02*
X348980D01*
X347974Y318683D01*
X347073Y318163D01*
X346337Y317427D01*
X345817Y316526D01*
X345547Y315520D01*
Y314480D01*
X345817Y313474D01*
X346337Y312573D01*
X347073Y311837D01*
X347974Y311317D01*
X348980Y311047D01*
X350020D01*
X351026Y311317D01*
X351927Y311837D01*
X352663Y312573D01*
X353183Y313474D01*
X353453Y314480D01*
Y315520D01*
X353183Y316526D01*
X352663Y317427D01*
X351927Y318163D01*
X351026Y318683D01*
X350020Y318953D01*
D02*
G37*
G36*
Y288953D02*
X348980D01*
X347974Y288683D01*
X347073Y288163D01*
X346337Y287427D01*
X345817Y286526D01*
X345547Y285520D01*
Y284480D01*
X345815Y283478D01*
X316419Y254081D01*
X316163Y253699D01*
X314925D01*
Y247900D01*
X320075D01*
Y253412D01*
X347978Y281315D01*
X348980Y281047D01*
X350020D01*
X351026Y281317D01*
X351927Y281837D01*
X352663Y282573D01*
X353183Y283474D01*
X353453Y284480D01*
Y285520D01*
X353183Y286526D01*
X352663Y287427D01*
X351927Y288163D01*
X351026Y288683D01*
X350020Y288953D01*
D02*
G37*
G36*
X320075Y247400D02*
X318000D01*
Y245000D01*
X320075D01*
Y247400D01*
D02*
G37*
G36*
Y244000D02*
X318000D01*
Y241600D01*
X320075D01*
Y244000D01*
D02*
G37*
G36*
X316500Y186400D02*
X314425D01*
Y185029D01*
X292312D01*
X292297Y185026D01*
X292281Y185029D01*
X266544Y184517D01*
X265962Y184389D01*
X265472Y184048D01*
X265150Y183545D01*
X265046Y182958D01*
X265174Y182375D01*
X265515Y181886D01*
X266018Y181564D01*
X266605Y181459D01*
X292327Y181971D01*
X314425D01*
Y180600D01*
X316500D01*
Y183500D01*
Y186400D01*
D02*
G37*
%LPD*%
D10*
X568000Y312200D02*
X569800D01*
X184700Y176500D02*
X262800D01*
X341900Y405500D02*
Y426500D01*
X425500Y388000D02*
X439200D01*
X442000Y385200D01*
X479000D01*
X480000Y388500D01*
X249843Y252870D02*
X261700Y264727D01*
Y409043D01*
X269500Y416843D01*
X588000Y398593D02*
X592900D01*
X612000Y379493D01*
Y346000D02*
Y379493D01*
X609500Y343500D02*
X612000Y346000D01*
X600000Y343500D02*
X609500D01*
X584843Y328343D02*
X600000Y343500D01*
X584843Y251370D02*
Y328343D01*
X425500Y398000D02*
X447000Y419500D01*
X458500D01*
Y424500D01*
X460500Y426500D01*
X495200D01*
X512200Y409500D01*
Y353600D02*
Y409500D01*
Y353600D02*
X534400Y331400D01*
X571100D01*
Y313500D02*
Y331400D01*
X569800Y312200D02*
X571100Y313500D01*
X568000Y308177D02*
Y312200D01*
X200630Y213500D02*
X207800Y220670D01*
Y249600D01*
X245799Y287599D01*
Y339000D01*
X333300Y295000D02*
X349500D01*
X332800Y294500D02*
X333300Y295000D01*
X316000Y294500D02*
X332800D01*
X317500Y250799D02*
Y253000D01*
X349500Y285000D01*
X569530Y245900D02*
X575000Y251370D01*
X555600Y245900D02*
X569530D01*
X537500Y264000D02*
X555600Y245900D01*
X537500Y264000D02*
Y307000D01*
X193685Y438500D02*
X205500Y426685D01*
X189000Y438500D02*
X193685D01*
X345900Y423400D02*
X357953Y411347D01*
Y206453D02*
Y411347D01*
X351900Y200400D02*
X357953Y206453D01*
X347100Y200400D02*
X351900D01*
X345000Y202500D02*
X347100Y200400D01*
X345000Y202500D02*
Y260500D01*
X349500Y265000D01*
X264399Y189799D02*
X317000D01*
X261100Y186500D02*
X264399Y189799D01*
X261100Y178200D02*
Y186500D01*
Y178200D02*
X262800Y176500D01*
X331600D01*
X342300Y187200D01*
Y266300D01*
X345500Y269500D01*
X351500D01*
X353953Y267047D01*
Y259453D02*
Y267047D01*
X349500Y255000D02*
X353953Y259453D01*
X144000Y422185D02*
X148500Y426685D01*
X144000Y217200D02*
Y422185D01*
Y217200D02*
X184700Y176500D01*
X218900Y225900D02*
Y257800D01*
X249200Y288100D01*
Y367299D01*
X246200Y370299D02*
X249200Y367299D01*
X239000Y370299D02*
X246200D01*
X239000D02*
Y396185D01*
X269500Y426685D01*
X281299Y295000D02*
Y430499D01*
X301300Y450500D01*
X475589D01*
X509500Y416589D01*
X522000D01*
X281299Y276701D02*
Y295000D01*
Y276701D02*
X301300Y256700D01*
X317000Y214700D02*
Y218500D01*
X370800Y246300D02*
Y349700D01*
X313500Y304000D02*
Y332000D01*
Y304000D02*
X317500Y300000D01*
X351500D01*
X355953Y295547D01*
Y211453D02*
Y295547D01*
X349500Y205000D02*
X355953Y211453D01*
X313500Y332000D02*
X325500D01*
X329500Y336000D01*
Y416500D01*
X449500Y315000D02*
X452800Y311700D01*
X506000D01*
X507000Y312700D01*
Y315000D01*
X449500Y305000D02*
X486701Y267799D01*
Y245000D02*
Y267799D01*
X445000Y299500D02*
X449500Y295000D01*
X445000Y299500D02*
Y317000D01*
X447500Y319500D01*
X465000D01*
X469000Y315500D01*
X488500D01*
X213425Y182988D02*
Y190862D01*
X200630Y203657D02*
X213425Y190862D01*
X200630Y203657D02*
X213425Y216453D01*
Y244012D01*
X266575D02*
X275000Y252437D01*
Y295000D01*
Y401500D01*
X269500Y407000D02*
X275000Y401500D01*
X317000Y224799D02*
X318801D01*
X320100Y223500D01*
Y184500D02*
Y223500D01*
X319100Y183500D02*
X320100Y184500D01*
X317000Y183500D02*
X319100D01*
X292312D02*
X317000D01*
X266575Y182988D02*
X292312Y183500D01*
X306300Y244012D02*
X309500D01*
X306300D02*
Y335099D01*
X309500Y338299D01*
X313500D01*
X189000Y423500D02*
X205500Y407000D01*
X189000Y423500D02*
Y432201D01*
X239000Y352000D02*
Y364000D01*
Y352000D02*
X239500Y339000D01*
X548425Y181488D02*
Y189362D01*
X535630Y202157D02*
X548425Y189362D01*
X535630Y202157D02*
X548425Y214953D01*
Y242512D01*
X493000D02*
X548425D01*
X493000D02*
Y245000D01*
X601575Y242512D02*
X606000Y246937D01*
Y331000D01*
X565157Y251370D02*
Y279443D01*
X564500Y313400D02*
X565157Y279443D01*
X564500Y313400D02*
X568000Y316900D01*
Y325500D01*
X530500D02*
X568000D01*
X506500Y349500D02*
X530500Y325500D01*
X506500Y335600D02*
Y349500D01*
Y335600D02*
X507000Y335100D01*
Y321299D02*
Y335100D01*
X466700Y394799D02*
X480000D01*
X466200Y395299D02*
X466700Y394799D01*
X453000Y395299D02*
X466200D01*
X480000Y394799D02*
Y405700D01*
X478500Y407200D02*
X480000Y405700D01*
X478500Y407200D02*
Y419500D01*
X498000Y321299D02*
X507000D01*
X497500Y321799D02*
X498000Y321299D01*
X488500Y321799D02*
X497500D01*
X486701D02*
X488500D01*
X425500Y383000D02*
X486701Y321799D01*
X405815Y388000D02*
X413801D01*
X418335Y383466D01*
Y312865D02*
Y383466D01*
X344000Y340000D02*
Y381681D01*
X577000Y347900D02*
Y351000D01*
X341900Y405500D02*
X344000D01*
X341900Y426500D02*
X343900Y428500D01*
X359100D01*
X394600Y393000D01*
X405815D01*
Y398000D01*
X422700Y388000D02*
X425500D01*
X418200Y392500D02*
X422700Y388000D01*
X418200Y392500D02*
Y420300D01*
X416000Y422500D02*
X418200Y420300D01*
X414000Y422500D02*
X416000D01*
X425500Y393000D02*
X437100D01*
X441100Y389000D01*
X453000D01*
X405815Y383000D02*
X409500D01*
X412800Y379700D01*
X516200D02*
X557099D01*
X583299Y353500D01*
Y351000D02*
Y353500D01*
D11*
X239000Y364000D02*
D03*
Y370299D02*
D03*
X317000Y189799D02*
D03*
Y183500D02*
D03*
X414000Y428799D02*
D03*
Y422500D02*
D03*
X453000Y389000D02*
D03*
Y395299D02*
D03*
X480000Y388500D02*
D03*
Y394799D02*
D03*
X189000Y438500D02*
D03*
Y432201D02*
D03*
X317500Y244500D02*
D03*
Y250799D02*
D03*
X507000Y321299D02*
D03*
Y315000D02*
D03*
X317000Y218500D02*
D03*
Y224799D02*
D03*
X313500Y338299D02*
D03*
Y332000D02*
D03*
X488500Y321799D02*
D03*
Y315500D02*
D03*
D12*
X478500Y419500D02*
D03*
X458500D02*
D03*
D13*
X606000Y351000D02*
D03*
Y331000D02*
D03*
D14*
X405815Y398000D02*
D03*
Y393000D02*
D03*
Y388000D02*
D03*
Y383000D02*
D03*
X425500Y398000D02*
D03*
Y383000D02*
D03*
Y388000D02*
D03*
Y393000D02*
D03*
D15*
X239500Y339000D02*
D03*
X245799D02*
D03*
X577000Y351000D02*
D03*
X583299D02*
D03*
X537500Y307000D02*
D03*
X531201D02*
D03*
X316000Y294500D02*
D03*
X309701D02*
D03*
X275000Y295000D02*
D03*
X281299D02*
D03*
X493000Y245000D02*
D03*
X486701D02*
D03*
D16*
X344000Y381681D02*
D03*
Y405500D02*
D03*
D17*
X568000Y308177D02*
D03*
Y325500D02*
D03*
D31*
X414000Y428799D02*
X416000D01*
X420700Y424099D01*
Y400000D02*
Y424099D01*
Y400000D02*
X425500Y398000D01*
X349500Y165000D02*
X421085Y236585D01*
Y385015D01*
X410100Y396000D02*
X421085Y385015D01*
X410100Y396000D02*
Y426500D01*
X414000Y428799D01*
X266575Y244012D02*
X297787D01*
X317000Y224799D01*
X316673Y236839D02*
X317000Y224799D01*
X313256Y240256D02*
X316673Y236839D01*
X313256Y240256D02*
X317500Y244500D01*
X309500Y244012D02*
X313256Y240256D01*
X205500Y368000D02*
Y407000D01*
Y368000D02*
X209500Y364000D01*
X239000D01*
X506500Y349500D02*
Y388299D01*
X500000Y394799D02*
X506500Y388299D01*
X480000Y394799D02*
X500000D01*
D32*
X526185Y349500D02*
X532885Y356200D01*
X546400D01*
X551600Y351000D01*
X577000D01*
Y347900D02*
X579500Y345400D01*
X589100D01*
X594700Y351000D01*
X606000D01*
D33*
X349500Y165000D02*
D03*
X449500Y345000D02*
D03*
D34*
X349500Y175000D02*
D03*
Y185000D02*
D03*
Y195000D02*
D03*
Y205000D02*
D03*
Y215000D02*
D03*
Y225000D02*
D03*
Y235000D02*
D03*
Y245000D02*
D03*
Y255000D02*
D03*
Y265000D02*
D03*
Y275000D02*
D03*
Y285000D02*
D03*
Y295000D02*
D03*
Y305000D02*
D03*
Y315000D02*
D03*
Y325000D02*
D03*
Y335000D02*
D03*
Y345000D02*
D03*
X449500Y335000D02*
D03*
Y325000D02*
D03*
Y315000D02*
D03*
Y305000D02*
D03*
Y295000D02*
D03*
Y285000D02*
D03*
Y275000D02*
D03*
Y265000D02*
D03*
Y255000D02*
D03*
Y245000D02*
D03*
Y235000D02*
D03*
Y225000D02*
D03*
Y215000D02*
D03*
Y205000D02*
D03*
Y195000D02*
D03*
Y185000D02*
D03*
Y175000D02*
D03*
Y165000D02*
D03*
D35*
X200630Y213500D02*
D03*
Y223343D02*
D03*
Y203657D02*
D03*
X240000Y252870D02*
D03*
X230157D02*
D03*
X249843D02*
D03*
X213425Y244012D02*
D03*
X266575D02*
D03*
X213425Y182988D02*
D03*
X266575D02*
D03*
X535630Y212000D02*
D03*
Y221843D02*
D03*
Y202157D02*
D03*
X575000Y251370D02*
D03*
X565157D02*
D03*
X584843D02*
D03*
X548425Y242512D02*
D03*
X601575D02*
D03*
X548425Y181488D02*
D03*
X601575D02*
D03*
D36*
X526185Y349500D02*
D03*
X506500D02*
D03*
X205500Y426685D02*
D03*
Y416843D02*
D03*
Y407000D02*
D03*
X148500Y426685D02*
D03*
Y416843D02*
D03*
Y407000D02*
D03*
X269500Y426685D02*
D03*
Y416843D02*
D03*
Y407000D02*
D03*
D37*
X522000Y398085D02*
D03*
Y416589D02*
D03*
Y435093D02*
D03*
X588000Y435600D02*
D03*
Y417096D02*
D03*
Y398593D02*
D03*
X653000Y398085D02*
D03*
Y416589D02*
D03*
Y435093D02*
D03*
D38*
X345900Y423400D02*
D03*
X218900Y225900D02*
D03*
X301300Y256700D02*
D03*
X370800Y246300D02*
D03*
Y349700D02*
D03*
X329500Y416500D02*
D03*
X344000Y340000D02*
D03*
X412800Y379700D02*
D03*
X516200D02*
D03*
M02*
