G04*
G04 #@! TF.GenerationSoftware,Altium Limited,Altium Designer,21.4.1 (30)*
G04*
G04 Layer_Color=255*
%FSLAX25Y25*%
%MOIN*%
G70*
G04*
G04 #@! TF.SameCoordinates,E3ABAEE7-5D4E-4445-B66A-D27F58F8AFC5*
G04*
G04*
G04 #@! TF.FilePolarity,Positive*
G04*
G01*
G75*
%ADD33R,0.05906X0.05906*%
%ADD34C,0.05906*%
%ADD35C,0.07874*%
%ADD36C,0.06000*%
%ADD37R,0.15748X0.11811*%
D33*
X349500Y165000D02*
D03*
X449500Y345000D02*
D03*
D34*
X349500Y175000D02*
D03*
Y185000D02*
D03*
Y195000D02*
D03*
Y205000D02*
D03*
Y215000D02*
D03*
Y225000D02*
D03*
Y235000D02*
D03*
Y245000D02*
D03*
Y255000D02*
D03*
Y265000D02*
D03*
Y275000D02*
D03*
Y285000D02*
D03*
Y295000D02*
D03*
Y305000D02*
D03*
Y315000D02*
D03*
Y325000D02*
D03*
Y335000D02*
D03*
Y345000D02*
D03*
X449500Y335000D02*
D03*
Y325000D02*
D03*
Y315000D02*
D03*
Y305000D02*
D03*
Y295000D02*
D03*
Y285000D02*
D03*
Y275000D02*
D03*
Y265000D02*
D03*
Y255000D02*
D03*
Y245000D02*
D03*
Y235000D02*
D03*
Y225000D02*
D03*
Y215000D02*
D03*
Y205000D02*
D03*
Y195000D02*
D03*
Y185000D02*
D03*
Y175000D02*
D03*
Y165000D02*
D03*
D35*
X200630Y213500D02*
D03*
Y223343D02*
D03*
Y203657D02*
D03*
X240000Y252870D02*
D03*
X230157D02*
D03*
X249843D02*
D03*
X213425Y244012D02*
D03*
X266575D02*
D03*
X213425Y182988D02*
D03*
X266575D02*
D03*
X535630Y212000D02*
D03*
Y221843D02*
D03*
Y202157D02*
D03*
X575000Y251370D02*
D03*
X565157D02*
D03*
X584843D02*
D03*
X548425Y242512D02*
D03*
X601575D02*
D03*
X548425Y181488D02*
D03*
X601575D02*
D03*
D36*
X526185Y349500D02*
D03*
X506500D02*
D03*
X205500Y426685D02*
D03*
Y416843D02*
D03*
Y407000D02*
D03*
X148500Y426685D02*
D03*
Y416843D02*
D03*
Y407000D02*
D03*
X269500Y426685D02*
D03*
Y416843D02*
D03*
Y407000D02*
D03*
D37*
X522000Y398085D02*
D03*
Y416589D02*
D03*
Y435093D02*
D03*
X588000Y435600D02*
D03*
Y417096D02*
D03*
Y398593D02*
D03*
X653000Y398085D02*
D03*
Y416589D02*
D03*
Y435093D02*
D03*
M02*
