G04*
G04 #@! TF.GenerationSoftware,Altium Limited,Altium Designer,21.4.1 (30)*
G04*
G04 Layer_Color=8421504*
%FSLAX25Y25*%
%MOIN*%
G70*
G04*
G04 #@! TF.SameCoordinates,E3ABAEE7-5D4E-4445-B66A-D27F58F8AFC5*
G04*
G04*
G04 #@! TF.FilePolarity,Positive*
G04*
G01*
G75*
%ADD11R,0.03150X0.03799*%
%ADD12R,0.07992X0.08976*%
%ADD13R,0.08976X0.07992*%
%ADD14R,0.04331X0.01968*%
%ADD15R,0.03799X0.03150*%
%ADD16R,0.13780X0.09252*%
%ADD17R,0.03150X0.08661*%
D11*
X239000Y364000D02*
D03*
Y370299D02*
D03*
X317000Y189799D02*
D03*
Y183500D02*
D03*
X414000Y428799D02*
D03*
Y422500D02*
D03*
X453000Y389000D02*
D03*
Y395299D02*
D03*
X480000Y388500D02*
D03*
Y394799D02*
D03*
X189000Y438500D02*
D03*
Y432201D02*
D03*
X317500Y244500D02*
D03*
Y250799D02*
D03*
X507000Y321299D02*
D03*
Y315000D02*
D03*
X317000Y218500D02*
D03*
Y224799D02*
D03*
X313500Y338299D02*
D03*
Y332000D02*
D03*
X488500Y321799D02*
D03*
Y315500D02*
D03*
D12*
X478500Y419500D02*
D03*
X458500D02*
D03*
D13*
X606000Y351000D02*
D03*
Y331000D02*
D03*
D14*
X405815Y398000D02*
D03*
Y393000D02*
D03*
Y388000D02*
D03*
Y383000D02*
D03*
X425500Y398000D02*
D03*
Y383000D02*
D03*
Y388000D02*
D03*
Y393000D02*
D03*
D15*
X239500Y339000D02*
D03*
X245799D02*
D03*
X577000Y351000D02*
D03*
X583299D02*
D03*
X537500Y307000D02*
D03*
X531201D02*
D03*
X316000Y294500D02*
D03*
X309701D02*
D03*
X275000Y295000D02*
D03*
X281299D02*
D03*
X493000Y245000D02*
D03*
X486701D02*
D03*
D16*
X344000Y381681D02*
D03*
Y405500D02*
D03*
D17*
X568000Y308177D02*
D03*
Y325500D02*
D03*
M02*
