M48
;Layer_Color=9474304
;FILE_FORMAT=2:5
INCH,TZ
;TYPE=PLATED
T1F00S00C0.02800
T2F00S00C0.03000
T3F00S00C0.03543
%
T01
X364700Y203900
X327800Y300500
X266740Y279340
X362700Y340500
X402300Y407000
T02
X410000Y293000
X262500Y289815
Y309500
X410000Y312685
T03
X388000Y226000
Y236000
Y246000
Y256000
Y266000
Y276000
Y286000
Y296000
Y306000
X288000
Y296000
Y286000
Y276000
Y266000
Y256000
Y246000
Y236000
Y226000
Y316000
Y326000
Y336000
Y346000
Y356000
Y366000
Y376000
Y386000
Y396000
Y406000
X388000
Y396000
Y386000
Y376000
Y366000
Y356000
Y346000
Y336000
Y326000
Y316000
M30
