G04*
G04 #@! TF.GenerationSoftware,Altium Limited,Altium Designer,21.4.1 (30)*
G04*
G04 Layer_Color=8421504*
%FSLAX25Y25*%
%MOIN*%
G70*
G04*
G04 #@! TF.SameCoordinates,14F4F737-F107-41AB-BACD-CDD85754C322*
G04*
G04*
G04 #@! TF.FilePolarity,Positive*
G04*
G01*
G75*
%ADD14R,0.02500X0.07000*%
%ADD15O,0.08661X0.15748*%
%ADD16R,0.11811X0.15748*%
%ADD17C,0.05906*%
%ADD18R,0.08976X0.07992*%
%ADD19R,0.03799X0.03150*%
%ADD20R,0.09843X0.03937*%
%ADD21R,0.09843X0.07874*%
%ADD22R,0.03347X0.04921*%
D14*
X368500Y183300D02*
D03*
X380500D02*
D03*
X374500D02*
D03*
D15*
Y194500D02*
D03*
D16*
X311500Y189000D02*
D03*
X330000D02*
D03*
D17*
X309000Y333500D02*
D03*
Y323500D02*
D03*
Y313500D02*
D03*
Y303500D02*
D03*
X369000Y333500D02*
D03*
Y323500D02*
D03*
Y313500D02*
D03*
Y303500D02*
D03*
D18*
X263000Y372500D02*
D03*
Y352500D02*
D03*
X411500Y355500D02*
D03*
Y375500D02*
D03*
D19*
X266500Y332000D02*
D03*
X260201D02*
D03*
X415500Y335000D02*
D03*
X409201D02*
D03*
D20*
X261500Y225500D02*
D03*
X412500Y227000D02*
D03*
X412000Y407000D02*
D03*
X260000Y407500D02*
D03*
D21*
X261500Y237000D02*
D03*
Y214000D02*
D03*
X412500Y238500D02*
D03*
Y215500D02*
D03*
X412000Y418500D02*
D03*
Y395500D02*
D03*
X260000Y396000D02*
D03*
Y419000D02*
D03*
D22*
X263000Y258008D02*
D03*
X259260Y268992D02*
D03*
X266740D02*
D03*
X411000Y271492D02*
D03*
X414740Y260508D02*
D03*
X407260D02*
D03*
M02*
