G04*
G04 #@! TF.GenerationSoftware,Altium Limited,Altium Designer,21.4.1 (30)*
G04*
G04 Layer_Color=2752767*
%FSLAX25Y25*%
%MOIN*%
G70*
G04*
G04 #@! TF.SameCoordinates,14F4F737-F107-41AB-BACD-CDD85754C322*
G04*
G04*
G04 #@! TF.FilePolarity,Positive*
G04*
G01*
G75*
%ADD40C,0.00200*%
%ADD41C,0.00267*%
D40*
X387200Y225200D02*
Y226800D01*
X388800D01*
Y225200D01*
X387200D01*
Y235200D02*
Y236800D01*
X388800D01*
Y235200D01*
X387200D01*
Y245200D02*
Y246800D01*
X388800D01*
Y245200D01*
X387200D01*
Y255200D02*
Y256800D01*
X388800D01*
Y255200D01*
X387200D01*
Y265200D02*
Y266800D01*
X388800D01*
Y265200D01*
X387200D01*
Y275200D02*
Y276800D01*
X388800D01*
Y275200D01*
X387200D01*
Y285200D02*
Y286800D01*
X388800D01*
Y285200D01*
X387200D01*
Y295200D02*
Y296800D01*
X388800D01*
Y295200D01*
X387200D01*
Y305200D02*
Y306800D01*
X388800D01*
Y305200D01*
X387200D01*
Y315200D02*
Y316800D01*
X388800D01*
Y315200D01*
X387200D01*
Y325200D02*
Y326800D01*
X388800D01*
Y325200D01*
X387200D01*
Y335200D02*
Y336800D01*
X388800D01*
Y335200D01*
X387200D01*
Y345200D02*
Y346800D01*
X388800D01*
Y345200D01*
X387200D01*
Y355200D02*
Y356800D01*
X388800D01*
Y355200D01*
X387200D01*
Y365200D02*
Y366800D01*
X388800D01*
Y365200D01*
X387200D01*
Y375200D02*
Y376800D01*
X388800D01*
Y375200D01*
X387200D01*
Y385200D02*
Y386800D01*
X388800D01*
Y385200D01*
X387200D01*
Y395200D02*
Y396800D01*
X388800D01*
Y395200D01*
X387200D01*
Y405200D02*
Y406800D01*
X388800D01*
Y405200D01*
X387200D01*
X287200D02*
Y406800D01*
X288800D01*
Y405200D01*
X287200D01*
Y395200D02*
Y396800D01*
X288800D01*
Y395200D01*
X287200D01*
Y385200D02*
Y386800D01*
X288800D01*
Y385200D01*
X287200D01*
Y375200D02*
Y376800D01*
X288800D01*
Y375200D01*
X287200D01*
Y365200D02*
Y366800D01*
X288800D01*
Y365200D01*
X287200D01*
Y355200D02*
Y356800D01*
X288800D01*
Y355200D01*
X287200D01*
Y345200D02*
Y346800D01*
X288800D01*
Y345200D01*
X287200D01*
Y335200D02*
Y336800D01*
X288800D01*
Y335200D01*
X287200D01*
Y325200D02*
Y326800D01*
X288800D01*
Y325200D01*
X287200D01*
Y315200D02*
Y316800D01*
X288800D01*
Y315200D01*
X287200D01*
Y305200D02*
Y306800D01*
X288800D01*
Y305200D01*
X287200D01*
Y295200D02*
Y296800D01*
X288800D01*
Y295200D01*
X287200D01*
Y285200D02*
Y286800D01*
X288800D01*
Y285200D01*
X287200D01*
Y275200D02*
Y276800D01*
X288800D01*
Y275200D01*
X287200D01*
Y265200D02*
Y266800D01*
X288800D01*
Y265200D01*
X287200D01*
Y255200D02*
Y256800D01*
X288800D01*
Y255200D01*
X287200D01*
Y245200D02*
Y246800D01*
X288800D01*
Y245200D01*
X287200D01*
Y235200D02*
Y236800D01*
X288800D01*
Y235200D01*
X287200D01*
Y225200D02*
Y226800D01*
X288800D01*
Y225200D01*
X287200D01*
X364700Y203100D02*
X363900Y204700D01*
X365500D01*
X364700Y203100D01*
X266740Y278540D02*
X265940Y280140D01*
X267540D01*
X266740Y278540D01*
X362700Y339700D02*
X361900Y341300D01*
X363500D01*
X362700Y339700D01*
X402300Y406200D02*
X401500Y407800D01*
X403100D01*
X402300Y406200D01*
X327800Y299700D02*
X327000Y301300D01*
X328600D01*
X327800Y299700D01*
D41*
X263300Y289815D02*
X262747Y290576D01*
X261853Y290285D01*
Y289345D01*
X262747Y289054D01*
X263300Y289815D01*
Y309500D02*
X262747Y310261D01*
X261853Y309970D01*
Y309030D01*
X262747Y308739D01*
X263300Y309500D01*
X410800Y293000D02*
X410247Y293761D01*
X409353Y293470D01*
Y292530D01*
X410247Y292239D01*
X410800Y293000D01*
Y312685D02*
X410247Y313446D01*
X409353Y313155D01*
Y312215D01*
X410247Y311924D01*
X410800Y312685D01*
M02*
