G04*
G04 #@! TF.GenerationSoftware,Altium Limited,Altium Designer,21.4.1 (30)*
G04*
G04 Layer_Color=16711935*
%FSLAX25Y25*%
%MOIN*%
G70*
G04*
G04 #@! TF.SameCoordinates,14F4F737-F107-41AB-BACD-CDD85754C322*
G04*
G04*
G04 #@! TF.FilePolarity,Negative*
G04*
G01*
G75*
%ADD26C,0.06706*%
%ADD32R,0.06706X0.06706*%
%ADD33C,0.06800*%
%ADD34C,0.05800*%
D26*
X388000Y226000D02*
D03*
Y236000D02*
D03*
Y246000D02*
D03*
Y256000D02*
D03*
Y266000D02*
D03*
Y276000D02*
D03*
Y286000D02*
D03*
Y296000D02*
D03*
Y306000D02*
D03*
Y316000D02*
D03*
Y326000D02*
D03*
Y336000D02*
D03*
Y346000D02*
D03*
Y356000D02*
D03*
Y366000D02*
D03*
Y376000D02*
D03*
Y386000D02*
D03*
Y396000D02*
D03*
X288000Y406000D02*
D03*
Y396000D02*
D03*
Y386000D02*
D03*
Y376000D02*
D03*
Y366000D02*
D03*
Y356000D02*
D03*
Y346000D02*
D03*
Y336000D02*
D03*
Y326000D02*
D03*
Y316000D02*
D03*
Y306000D02*
D03*
Y296000D02*
D03*
Y286000D02*
D03*
Y276000D02*
D03*
Y266000D02*
D03*
Y256000D02*
D03*
Y246000D02*
D03*
Y236000D02*
D03*
D32*
X388000Y406000D02*
D03*
X288000Y226000D02*
D03*
D33*
X262500Y289815D02*
D03*
Y309500D02*
D03*
X410000Y293000D02*
D03*
Y312685D02*
D03*
D34*
X364700Y203900D02*
D03*
X266740Y279340D02*
D03*
X362700Y340500D02*
D03*
X402300Y407000D02*
D03*
X327800Y300500D02*
D03*
M02*
