G04*
G04 #@! TF.GenerationSoftware,Altium Limited,Altium Designer,21.4.1 (30)*
G04*
G04 Layer_Color=8388736*
%FSLAX25Y25*%
%MOIN*%
G70*
G04*
G04 #@! TF.SameCoordinates,14F4F737-F107-41AB-BACD-CDD85754C322*
G04*
G04*
G04 #@! TF.FilePolarity,Negative*
G04*
G01*
G75*
%ADD23R,0.03300X0.07800*%
%ADD24O,0.09461X0.16548*%
%ADD25R,0.12611X0.16548*%
%ADD26C,0.06706*%
%ADD27R,0.09776X0.08792*%
%ADD28R,0.04599X0.03950*%
%ADD29R,0.10642X0.04737*%
%ADD30R,0.10642X0.08674*%
%ADD31R,0.04147X0.05721*%
%ADD32R,0.06706X0.06706*%
%ADD33C,0.06800*%
%ADD34C,0.05800*%
D23*
X368500Y183300D02*
D03*
X380500D02*
D03*
X374500D02*
D03*
D24*
Y194500D02*
D03*
D25*
X311500Y189000D02*
D03*
X330000D02*
D03*
D26*
X309000Y333500D02*
D03*
Y323500D02*
D03*
Y313500D02*
D03*
Y303500D02*
D03*
X369000Y333500D02*
D03*
Y323500D02*
D03*
Y313500D02*
D03*
Y303500D02*
D03*
X388000Y226000D02*
D03*
Y236000D02*
D03*
Y246000D02*
D03*
Y256000D02*
D03*
Y266000D02*
D03*
Y276000D02*
D03*
Y286000D02*
D03*
Y296000D02*
D03*
Y306000D02*
D03*
Y316000D02*
D03*
Y326000D02*
D03*
Y336000D02*
D03*
Y346000D02*
D03*
Y356000D02*
D03*
Y366000D02*
D03*
Y376000D02*
D03*
Y386000D02*
D03*
Y396000D02*
D03*
X288000Y406000D02*
D03*
Y396000D02*
D03*
Y386000D02*
D03*
Y376000D02*
D03*
Y366000D02*
D03*
Y356000D02*
D03*
Y346000D02*
D03*
Y336000D02*
D03*
Y326000D02*
D03*
Y316000D02*
D03*
Y306000D02*
D03*
Y296000D02*
D03*
Y286000D02*
D03*
Y276000D02*
D03*
Y266000D02*
D03*
Y256000D02*
D03*
Y246000D02*
D03*
Y236000D02*
D03*
D27*
X263000Y372500D02*
D03*
Y352500D02*
D03*
X411500Y355500D02*
D03*
Y375500D02*
D03*
D28*
X266500Y332000D02*
D03*
X260201D02*
D03*
X415500Y335000D02*
D03*
X409201D02*
D03*
D29*
X261500Y225500D02*
D03*
X412500Y227000D02*
D03*
X412000Y407000D02*
D03*
X260000Y407500D02*
D03*
D30*
X261500Y237000D02*
D03*
Y214000D02*
D03*
X412500Y238500D02*
D03*
Y215500D02*
D03*
X412000Y418500D02*
D03*
Y395500D02*
D03*
X260000Y396000D02*
D03*
Y419000D02*
D03*
D31*
X263000Y258008D02*
D03*
X259260Y268992D02*
D03*
X266740D02*
D03*
X411000Y271492D02*
D03*
X414740Y260508D02*
D03*
X407260D02*
D03*
D32*
X388000Y406000D02*
D03*
X288000Y226000D02*
D03*
D33*
X262500Y289815D02*
D03*
Y309500D02*
D03*
X410000Y293000D02*
D03*
Y312685D02*
D03*
D34*
X364700Y203900D02*
D03*
X266740Y279340D02*
D03*
X362700Y340500D02*
D03*
X402300Y407000D02*
D03*
X327800Y300500D02*
D03*
M02*
