G04*
G04 #@! TF.GenerationSoftware,Altium Limited,Altium Designer,21.4.1 (30)*
G04*
G04 Layer_Physical_Order=1*
G04 Layer_Color=255*
%FSLAX25Y25*%
%MOIN*%
G70*
G04*
G04 #@! TF.SameCoordinates,14F4F737-F107-41AB-BACD-CDD85754C322*
G04*
G04*
G04 #@! TF.FilePolarity,Positive*
G04*
G01*
G75*
%ADD11C,0.01000*%
%ADD14R,0.02500X0.07000*%
%ADD15O,0.08661X0.15748*%
%ADD16R,0.11811X0.15748*%
%ADD17C,0.05906*%
%ADD18R,0.08976X0.07992*%
%ADD19R,0.03799X0.03150*%
%ADD20R,0.09843X0.03937*%
%ADD21R,0.09843X0.07874*%
%ADD22R,0.03347X0.04921*%
%ADD35C,0.03000*%
%ADD36R,0.05906X0.05906*%
%ADD37C,0.06000*%
%ADD38C,0.05000*%
G36*
X431500Y171000D02*
X247500D01*
Y436500D01*
X431500D01*
Y171000D01*
D02*
G37*
%LPC*%
G36*
X417921Y423437D02*
X412500D01*
Y419000D01*
X417921D01*
Y423437D01*
D02*
G37*
G36*
Y418000D02*
X412500D01*
Y413563D01*
X417921D01*
Y418000D01*
D02*
G37*
G36*
X265921Y423937D02*
X254079D01*
Y421549D01*
X253500D01*
X252524Y421355D01*
X251698Y420802D01*
X250698Y419802D01*
X250145Y418975D01*
X249951Y418000D01*
Y377033D01*
X249445Y376275D01*
X249251Y375300D01*
Y372500D01*
Y218200D01*
X249445Y217225D01*
X249998Y216398D01*
X254198Y212198D01*
X255025Y211645D01*
X255579Y211535D01*
Y209063D01*
X258951D01*
Y195500D01*
X259145Y194525D01*
X259698Y193698D01*
X266198Y187198D01*
X267024Y186645D01*
X268000Y186451D01*
X304594D01*
Y180126D01*
X308951D01*
Y178300D01*
X309145Y177324D01*
X309698Y176498D01*
X312498Y173698D01*
X313324Y173145D01*
X314300Y172951D01*
X400200D01*
X401175Y173145D01*
X402002Y173698D01*
X409802Y181498D01*
X414302Y185998D01*
X414855Y186825D01*
X415049Y187800D01*
Y210563D01*
X418421D01*
Y212951D01*
X420000D01*
X420975Y213145D01*
X421802Y213698D01*
X427702Y219597D01*
X428255Y220424D01*
X428449Y221400D01*
Y389600D01*
X428255Y390576D01*
X427702Y391403D01*
X421802Y397302D01*
X420975Y397855D01*
X420000Y398049D01*
X417921D01*
Y400437D01*
X406079D01*
Y392179D01*
X405617Y391988D01*
X391605Y406000D01*
X401556Y415951D01*
X406079D01*
Y413563D01*
X411500D01*
Y418500D01*
Y423437D01*
X406079D01*
Y421049D01*
X400500D01*
X399524Y420855D01*
X398698Y420302D01*
X386198Y407802D01*
X385645Y406976D01*
X385451Y406000D01*
X385645Y405024D01*
X386198Y404198D01*
X408951Y381444D01*
Y380496D01*
X406012D01*
Y376000D01*
X411500D01*
Y375500D01*
X412000D01*
Y370504D01*
X416988D01*
Y370504D01*
X417273Y370622D01*
X419351Y368545D01*
Y339794D01*
X418889Y339603D01*
X413029Y345462D01*
Y350504D01*
X416988D01*
Y360496D01*
X406012D01*
Y350504D01*
X409971D01*
Y344829D01*
X410087Y344243D01*
X410419Y343747D01*
X411174Y342991D01*
X410983Y342529D01*
X390827D01*
X390619Y343029D01*
X391163Y343573D01*
X391683Y344474D01*
X391953Y345480D01*
Y346520D01*
X391683Y347526D01*
X391163Y348427D01*
X390427Y349163D01*
X389526Y349683D01*
X388520Y349953D01*
X387480D01*
X386474Y349683D01*
X385573Y349163D01*
X384837Y348427D01*
X384317Y347526D01*
X384047Y346520D01*
Y345480D01*
X384317Y344474D01*
X384837Y343573D01*
X385381Y343029D01*
X385174Y342529D01*
X376500D01*
X375915Y342413D01*
X375419Y342081D01*
X370522Y337185D01*
X369520Y337453D01*
X368480D01*
X367474Y337183D01*
X366573Y336663D01*
X365837Y335927D01*
X365319Y335029D01*
X312681D01*
X312163Y335927D01*
X311427Y336663D01*
X310529Y337181D01*
Y385000D01*
X310413Y385585D01*
X310081Y386081D01*
X291685Y404478D01*
X291953Y405480D01*
Y406520D01*
X291683Y407526D01*
X291163Y408427D01*
X290427Y409163D01*
X289526Y409683D01*
X288520Y409953D01*
X288405D01*
X288138Y410453D01*
X288149Y410471D01*
X290566D01*
X359385Y341652D01*
X359200Y340961D01*
Y340039D01*
X359438Y339149D01*
X359899Y338351D01*
X360551Y337699D01*
X361349Y337239D01*
X362239Y337000D01*
X363161D01*
X364051Y337239D01*
X364849Y337699D01*
X365501Y338351D01*
X365962Y339149D01*
X366200Y340039D01*
Y340961D01*
X365962Y341851D01*
X365501Y342649D01*
X364849Y343301D01*
X364051Y343761D01*
X363161Y344000D01*
X362239D01*
X361548Y343815D01*
X292281Y413081D01*
X291785Y413413D01*
X291200Y413529D01*
X287000D01*
X286415Y413413D01*
X285919Y413081D01*
X281867Y409029D01*
X265921D01*
Y410468D01*
X255049D01*
Y414063D01*
X265921D01*
Y423937D01*
D02*
G37*
G36*
X402761Y410500D02*
X401839D01*
X400949Y410261D01*
X400151Y409801D01*
X399499Y409149D01*
X399039Y408351D01*
X398800Y407461D01*
Y406539D01*
X399039Y405649D01*
X399499Y404851D01*
X400151Y404199D01*
X400949Y403738D01*
X401839Y403500D01*
X402761D01*
X403651Y403738D01*
X404449Y404199D01*
X405101Y404851D01*
X405458Y405471D01*
X406079D01*
Y404032D01*
X417921D01*
Y409969D01*
X406079D01*
Y408529D01*
X405458D01*
X405101Y409149D01*
X404449Y409801D01*
X403651Y410261D01*
X402761Y410500D01*
D02*
G37*
G36*
X388520Y399953D02*
X387480D01*
X386474Y399683D01*
X385573Y399163D01*
X384837Y398427D01*
X384317Y397526D01*
X384047Y396520D01*
Y395480D01*
X384317Y394474D01*
X384837Y393573D01*
X385573Y392837D01*
X386474Y392317D01*
X387480Y392047D01*
X388520D01*
X389526Y392317D01*
X390427Y392837D01*
X391163Y393573D01*
X391683Y394474D01*
X391953Y395480D01*
Y396520D01*
X391683Y397526D01*
X391163Y398427D01*
X390427Y399163D01*
X389526Y399683D01*
X388520Y399953D01*
D02*
G37*
G36*
Y389953D02*
X387480D01*
X386474Y389683D01*
X385573Y389163D01*
X384837Y388427D01*
X384317Y387526D01*
X384047Y386520D01*
Y385480D01*
X384317Y384474D01*
X384837Y383573D01*
X385573Y382837D01*
X386474Y382317D01*
X387480Y382047D01*
X388520D01*
X389526Y382317D01*
X390427Y382837D01*
X391163Y383573D01*
X391683Y384474D01*
X391953Y385480D01*
Y386520D01*
X391683Y387526D01*
X391163Y388427D01*
X390427Y389163D01*
X389526Y389683D01*
X388520Y389953D01*
D02*
G37*
G36*
Y379953D02*
X387480D01*
X386474Y379683D01*
X385573Y379163D01*
X384837Y378427D01*
X384317Y377526D01*
X384047Y376520D01*
Y375480D01*
X384317Y374474D01*
X384837Y373573D01*
X385573Y372837D01*
X386474Y372317D01*
X387480Y372047D01*
X388520D01*
X389526Y372317D01*
X390427Y372837D01*
X391163Y373573D01*
X391683Y374474D01*
X391953Y375480D01*
Y376520D01*
X391683Y377526D01*
X391163Y378427D01*
X390427Y379163D01*
X389526Y379683D01*
X388520Y379953D01*
D02*
G37*
G36*
X411000Y375000D02*
X406012D01*
Y370504D01*
X411000D01*
Y375000D01*
D02*
G37*
G36*
X388520Y369953D02*
X387480D01*
X386474Y369683D01*
X385573Y369163D01*
X384837Y368427D01*
X384317Y367526D01*
X384047Y366520D01*
Y365480D01*
X384317Y364474D01*
X384837Y363573D01*
X385573Y362837D01*
X386474Y362317D01*
X387480Y362047D01*
X388520D01*
X389526Y362317D01*
X390427Y362837D01*
X391163Y363573D01*
X391683Y364474D01*
X391953Y365480D01*
Y366520D01*
X391683Y367526D01*
X391163Y368427D01*
X390427Y369163D01*
X389526Y369683D01*
X388520Y369953D01*
D02*
G37*
G36*
Y359953D02*
X387480D01*
X386474Y359683D01*
X385573Y359163D01*
X384837Y358427D01*
X384317Y357526D01*
X384047Y356520D01*
Y355480D01*
X384317Y354474D01*
X384837Y353573D01*
X385573Y352837D01*
X386474Y352317D01*
X387480Y352047D01*
X388520D01*
X389526Y352317D01*
X390427Y352837D01*
X391163Y353573D01*
X391683Y354474D01*
X391953Y355480D01*
Y356520D01*
X391683Y357526D01*
X391163Y358427D01*
X390427Y359163D01*
X389526Y359683D01*
X388520Y359953D01*
D02*
G37*
%LPD*%
G36*
X283685Y406365D02*
X284047Y406177D01*
Y405480D01*
X284317Y404474D01*
X284837Y403573D01*
X285573Y402837D01*
X286474Y402317D01*
X287480Y402047D01*
X288520D01*
X289522Y402316D01*
X307471Y384366D01*
Y337846D01*
X307009Y337654D01*
X302681Y341981D01*
X302185Y342313D01*
X301600Y342429D01*
X290650D01*
X290519Y342929D01*
X291163Y343573D01*
X291683Y344474D01*
X291953Y345480D01*
Y346520D01*
X291683Y347526D01*
X291163Y348427D01*
X290427Y349163D01*
X289526Y349683D01*
X288520Y349953D01*
X287480D01*
X286474Y349683D01*
X285573Y349163D01*
X284837Y348427D01*
X284317Y347526D01*
X284047Y346520D01*
Y345480D01*
X284317Y344474D01*
X284837Y343573D01*
X285481Y342929D01*
X285350Y342429D01*
X281700D01*
X281115Y342313D01*
X280619Y341981D01*
X272166Y333529D01*
X269400D01*
Y334575D01*
X263600D01*
Y329425D01*
X269400D01*
Y330471D01*
X272800D01*
X273385Y330587D01*
X273881Y330919D01*
X282333Y339371D01*
X285073D01*
X285281Y338871D01*
X284837Y338427D01*
X284317Y337526D01*
X284047Y336520D01*
Y335480D01*
X284317Y334474D01*
X284837Y333573D01*
X285573Y332837D01*
X286474Y332317D01*
X287480Y332047D01*
X288520D01*
X289526Y332317D01*
X290427Y332837D01*
X291163Y333573D01*
X291683Y334474D01*
X291953Y335480D01*
Y336520D01*
X291683Y337526D01*
X291163Y338427D01*
X290719Y338871D01*
X290927Y339371D01*
X300967D01*
X305315Y335022D01*
X305047Y334020D01*
Y332980D01*
X305317Y331974D01*
X305837Y331073D01*
X306573Y330337D01*
X307106Y330029D01*
X306972Y329529D01*
X304500D01*
X303915Y329413D01*
X303419Y329081D01*
X299419Y325081D01*
X299087Y324585D01*
X298971Y324000D01*
Y318833D01*
X293166Y313029D01*
X291273D01*
X291081Y313491D01*
X291163Y313573D01*
X291683Y314474D01*
X291953Y315480D01*
Y316520D01*
X291683Y317526D01*
X291163Y318427D01*
X290427Y319163D01*
X289526Y319683D01*
X288520Y319953D01*
X287480D01*
X286474Y319683D01*
X285573Y319163D01*
X284837Y318427D01*
X284317Y317526D01*
X284047Y316520D01*
Y315480D01*
X284317Y314474D01*
X284837Y313573D01*
X285104Y313306D01*
X285040Y312663D01*
X284919Y312581D01*
X282419Y310081D01*
X282087Y309585D01*
X281971Y309000D01*
Y230500D01*
X282087Y229915D01*
X282419Y229419D01*
X284047Y227790D01*
Y224711D01*
X283585Y224519D01*
X269302Y238802D01*
X268476Y239355D01*
X267500Y239549D01*
X267421D01*
Y241937D01*
X264049D01*
Y244400D01*
X263855Y245375D01*
X263302Y246202D01*
X260949Y248556D01*
Y254547D01*
X265673D01*
Y261468D01*
X264529D01*
Y265532D01*
X269413D01*
Y272453D01*
X268270D01*
Y276182D01*
X268889Y276539D01*
X269541Y277191D01*
X270002Y277989D01*
X270240Y278879D01*
Y279801D01*
X270002Y280691D01*
X269541Y281489D01*
X268889Y282141D01*
X268091Y282602D01*
X267201Y282840D01*
X266279D01*
X265389Y282602D01*
X264591Y282141D01*
X264491Y282041D01*
X264029Y282232D01*
Y286084D01*
X264044Y286088D01*
X264956Y286614D01*
X265701Y287359D01*
X266227Y288271D01*
X266500Y289288D01*
Y290342D01*
X266227Y291359D01*
X265701Y292271D01*
X264956Y293016D01*
X264044Y293542D01*
X263027Y293815D01*
X261973D01*
X260956Y293542D01*
X260044Y293016D01*
X259299Y292271D01*
X258849Y291491D01*
X258349Y291625D01*
Y307690D01*
X258849Y307824D01*
X259299Y307044D01*
X260044Y306299D01*
X260956Y305773D01*
X261973Y305500D01*
X263027D01*
X264044Y305773D01*
X264956Y306299D01*
X265701Y307044D01*
X266227Y307956D01*
X266500Y308973D01*
Y310027D01*
X266227Y311044D01*
X265701Y311956D01*
X264956Y312701D01*
X264044Y313227D01*
X263027Y313500D01*
X261973D01*
X261730Y313687D01*
Y329425D01*
X263100D01*
Y334575D01*
X259633D01*
X259441Y335037D01*
X264802Y340398D01*
X265355Y341225D01*
X265549Y342200D01*
Y347504D01*
X268488D01*
Y350048D01*
X268975Y350145D01*
X269802Y350698D01*
X272202Y353098D01*
X272755Y353924D01*
X272949Y354900D01*
Y392000D01*
X272755Y392975D01*
X272202Y393802D01*
X268202Y397802D01*
X267375Y398355D01*
X266400Y398549D01*
X265921D01*
Y400937D01*
X260500D01*
Y396000D01*
Y391063D01*
X265921D01*
Y392221D01*
X266383Y392412D01*
X267851Y390944D01*
Y377496D01*
X257512D01*
Y375049D01*
X255254D01*
X254937Y375435D01*
X255049Y376000D01*
Y391063D01*
X259500D01*
Y396000D01*
Y400937D01*
X255049D01*
Y404531D01*
X265921D01*
Y405971D01*
X282500D01*
X283085Y406087D01*
X283547Y406396D01*
X283685Y406365D01*
D02*
G37*
G36*
X257512Y367504D02*
X267851D01*
Y357496D01*
X263500D01*
Y352500D01*
X263000D01*
Y352000D01*
X257512D01*
Y347504D01*
X260451D01*
Y343256D01*
X254811Y337616D01*
X254349Y337807D01*
Y369951D01*
X257512D01*
Y367504D01*
D02*
G37*
G36*
X381971Y301066D02*
Y294000D01*
X382087Y293415D01*
X382419Y292919D01*
X384919Y290419D01*
X385415Y290087D01*
X385979Y289975D01*
X386010Y289924D01*
X386106Y289471D01*
X385573Y289163D01*
X384837Y288427D01*
X384317Y287526D01*
X384047Y286520D01*
Y285480D01*
X384317Y284474D01*
X384837Y283573D01*
X385573Y282837D01*
X386474Y282317D01*
X387480Y282047D01*
X388520D01*
X389522Y282315D01*
X407407Y264430D01*
X407215Y263968D01*
X404587D01*
Y262037D01*
X392508D01*
X391922Y261921D01*
X391426Y261589D01*
X389522Y259684D01*
X388520Y259953D01*
X387480D01*
X386474Y259683D01*
X385573Y259163D01*
X384837Y258427D01*
X384317Y257526D01*
X384047Y256520D01*
Y255480D01*
X384317Y254474D01*
X384837Y253573D01*
X385573Y252837D01*
X386474Y252317D01*
X387480Y252047D01*
X388520D01*
X389526Y252317D01*
X390427Y252837D01*
X391163Y253573D01*
X391683Y254474D01*
X391953Y255480D01*
Y256520D01*
X391685Y257522D01*
X393141Y258978D01*
X404587D01*
Y257047D01*
X408971D01*
Y254633D01*
X404919Y250581D01*
X404587Y250085D01*
X404471Y249500D01*
Y228000D01*
X404587Y227415D01*
X404919Y226919D01*
X405919Y225919D01*
X406415Y225587D01*
X406579Y225554D01*
Y225049D01*
X401300D01*
X400324Y224855D01*
X399498Y224302D01*
X393744Y218549D01*
X381856D01*
X371549Y228856D01*
Y300459D01*
X372163Y301073D01*
X372683Y301974D01*
X372953Y302980D01*
Y303000D01*
X369000D01*
Y304000D01*
X372953D01*
Y304020D01*
X372683Y305026D01*
X372163Y305927D01*
X371619Y306471D01*
X371827Y306971D01*
X376066D01*
X381971Y301066D01*
D02*
G37*
G36*
X413000Y233563D02*
X417451D01*
Y229969D01*
X407529D01*
Y233563D01*
X412000D01*
Y238500D01*
X413000D01*
Y233563D01*
D02*
G37*
G36*
X337198Y301698D02*
X338024Y301145D01*
X339000Y300951D01*
X365959D01*
X366451Y300459D01*
Y227800D01*
X366645Y226824D01*
X367198Y225998D01*
X378184Y215011D01*
X377993Y214549D01*
X334000D01*
X333025Y214355D01*
X332198Y213802D01*
X328198Y209802D01*
X327645Y208976D01*
X327451Y208000D01*
Y197874D01*
X323095D01*
Y189500D01*
X330000D01*
Y189000D01*
X330500D01*
Y180126D01*
X336906D01*
Y186451D01*
X364407D01*
X366151Y182311D01*
X366250Y182164D01*
Y178800D01*
X368000D01*
Y183300D01*
X369000D01*
Y178800D01*
X370750D01*
Y182171D01*
X370861Y182338D01*
X371049Y183315D01*
X370849Y184289D01*
X370750Y184525D01*
Y186550D01*
X371198Y186771D01*
X371812Y186300D01*
X372250Y186119D01*
Y178800D01*
X376750D01*
Y186119D01*
X377188Y186300D01*
X377802Y186771D01*
X378250Y186550D01*
Y184432D01*
X378145Y184275D01*
X377951Y183300D01*
X378145Y182325D01*
X378250Y182167D01*
Y178800D01*
X382750D01*
Y180751D01*
X401193D01*
X401384Y180289D01*
X399144Y178049D01*
X315356D01*
X314049Y179356D01*
Y180126D01*
X318406D01*
Y197874D01*
X304594D01*
Y191549D01*
X269056D01*
X264049Y196556D01*
Y209063D01*
X267421D01*
Y218937D01*
X255579D01*
Y218679D01*
X255117Y218488D01*
X254349Y219256D01*
Y274253D01*
X254811Y274444D01*
X256385Y272869D01*
X256587Y272453D01*
Y269492D01*
X259260D01*
Y268492D01*
X256587D01*
Y265532D01*
X256711D01*
Y264956D01*
X256598Y264843D01*
X256045Y264016D01*
X255851Y263040D01*
Y247500D01*
X256045Y246525D01*
X256598Y245698D01*
X258951Y243344D01*
Y241937D01*
X255579D01*
Y237500D01*
X261500D01*
Y237000D01*
X262000D01*
Y232063D01*
X267421D01*
Y232821D01*
X267883Y233012D01*
X273404Y227491D01*
X273213Y227029D01*
X267421D01*
Y228468D01*
X255579D01*
Y222532D01*
X267421D01*
Y223971D01*
X274066D01*
X281819Y216219D01*
X282315Y215887D01*
X282900Y215771D01*
X310200D01*
X310785Y215887D01*
X311281Y216219D01*
X328881Y233819D01*
X329213Y234315D01*
X329329Y234900D01*
Y297341D01*
X329949Y297699D01*
X330601Y298351D01*
X331062Y299149D01*
X331300Y300039D01*
Y300961D01*
X331062Y301851D01*
X330601Y302649D01*
X329949Y303301D01*
X329151Y303762D01*
X328261Y304000D01*
X327339D01*
X326449Y303762D01*
X325651Y303301D01*
X324999Y302649D01*
X324538Y301851D01*
X324300Y300961D01*
Y300039D01*
X324538Y299149D01*
X324999Y298351D01*
X325651Y297699D01*
X326271Y297341D01*
Y235533D01*
X309566Y218829D01*
X306588D01*
X306396Y219291D01*
X310802Y223698D01*
X311355Y224524D01*
X311549Y225500D01*
Y300459D01*
X312163Y301073D01*
X312683Y301974D01*
X312953Y302980D01*
Y303000D01*
X309000D01*
Y304000D01*
X313105D01*
X314781Y305676D01*
X333219D01*
X337198Y301698D01*
D02*
G37*
%LPC*%
G36*
X288520Y399953D02*
X287480D01*
X286474Y399683D01*
X285573Y399163D01*
X284837Y398427D01*
X284317Y397526D01*
X284047Y396520D01*
Y395480D01*
X284317Y394474D01*
X284837Y393573D01*
X285573Y392837D01*
X286474Y392317D01*
X287480Y392047D01*
X288520D01*
X289526Y392317D01*
X290427Y392837D01*
X291163Y393573D01*
X291683Y394474D01*
X291953Y395480D01*
Y396520D01*
X291683Y397526D01*
X291163Y398427D01*
X290427Y399163D01*
X289526Y399683D01*
X288520Y399953D01*
D02*
G37*
G36*
Y389953D02*
X287480D01*
X286474Y389683D01*
X285573Y389163D01*
X284837Y388427D01*
X284317Y387526D01*
X284047Y386520D01*
Y385480D01*
X284317Y384474D01*
X284837Y383573D01*
X285573Y382837D01*
X286474Y382317D01*
X287480Y382047D01*
X288520D01*
X289526Y382317D01*
X290427Y382837D01*
X291163Y383573D01*
X291683Y384474D01*
X291953Y385480D01*
Y386520D01*
X291683Y387526D01*
X291163Y388427D01*
X290427Y389163D01*
X289526Y389683D01*
X288520Y389953D01*
D02*
G37*
G36*
Y379953D02*
X287480D01*
X286474Y379683D01*
X285573Y379163D01*
X284837Y378427D01*
X284317Y377526D01*
X284047Y376520D01*
Y375480D01*
X284317Y374474D01*
X284837Y373573D01*
X285573Y372837D01*
X286474Y372317D01*
X287480Y372047D01*
X288520D01*
X289526Y372317D01*
X290427Y372837D01*
X291163Y373573D01*
X291683Y374474D01*
X291953Y375480D01*
Y376520D01*
X291683Y377526D01*
X291163Y378427D01*
X290427Y379163D01*
X289526Y379683D01*
X288520Y379953D01*
D02*
G37*
G36*
Y369953D02*
X287480D01*
X286474Y369683D01*
X285573Y369163D01*
X284837Y368427D01*
X284317Y367526D01*
X284047Y366520D01*
Y365480D01*
X284317Y364474D01*
X284837Y363573D01*
X285573Y362837D01*
X286474Y362317D01*
X287480Y362047D01*
X288520D01*
X289526Y362317D01*
X290427Y362837D01*
X291163Y363573D01*
X291683Y364474D01*
X291953Y365480D01*
Y366520D01*
X291683Y367526D01*
X291163Y368427D01*
X290427Y369163D01*
X289526Y369683D01*
X288520Y369953D01*
D02*
G37*
G36*
Y359953D02*
X287480D01*
X286474Y359683D01*
X285573Y359163D01*
X284837Y358427D01*
X284317Y357526D01*
X284047Y356520D01*
Y355480D01*
X284317Y354474D01*
X284837Y353573D01*
X285573Y352837D01*
X286474Y352317D01*
X287480Y352047D01*
X288520D01*
X289526Y352317D01*
X290427Y352837D01*
X291163Y353573D01*
X291683Y354474D01*
X291953Y355480D01*
Y356520D01*
X291683Y357526D01*
X291163Y358427D01*
X290427Y359163D01*
X289526Y359683D01*
X288520Y359953D01*
D02*
G37*
G36*
Y329953D02*
X287480D01*
X286474Y329683D01*
X285573Y329163D01*
X284837Y328427D01*
X284317Y327526D01*
X284047Y326520D01*
Y325480D01*
X284317Y324474D01*
X284837Y323573D01*
X285573Y322837D01*
X286474Y322317D01*
X287480Y322047D01*
X288520D01*
X289526Y322317D01*
X290427Y322837D01*
X291163Y323573D01*
X291683Y324474D01*
X291953Y325480D01*
Y326520D01*
X291683Y327526D01*
X291163Y328427D01*
X290427Y329163D01*
X289526Y329683D01*
X288520Y329953D01*
D02*
G37*
G36*
X262500Y357496D02*
X257512D01*
Y353000D01*
X262500D01*
Y357496D01*
D02*
G37*
G36*
X388520Y279953D02*
X387480D01*
X386474Y279683D01*
X385573Y279163D01*
X384837Y278427D01*
X384317Y277526D01*
X384047Y276520D01*
Y275480D01*
X384317Y274474D01*
X384837Y273573D01*
X385573Y272837D01*
X386474Y272317D01*
X387480Y272047D01*
X388520D01*
X389526Y272317D01*
X390427Y272837D01*
X391163Y273573D01*
X391683Y274474D01*
X391953Y275480D01*
Y276520D01*
X391683Y277526D01*
X391163Y278427D01*
X390427Y279163D01*
X389526Y279683D01*
X388520Y279953D01*
D02*
G37*
G36*
Y269953D02*
X387480D01*
X386474Y269683D01*
X385573Y269163D01*
X384837Y268427D01*
X384317Y267526D01*
X384047Y266520D01*
Y265480D01*
X384317Y264474D01*
X384837Y263573D01*
X385573Y262837D01*
X386474Y262317D01*
X387480Y262047D01*
X388520D01*
X389526Y262317D01*
X390427Y262837D01*
X391163Y263573D01*
X391683Y264474D01*
X391953Y265480D01*
Y266520D01*
X391683Y267526D01*
X391163Y268427D01*
X390427Y269163D01*
X389526Y269683D01*
X388520Y269953D01*
D02*
G37*
G36*
Y249953D02*
X387480D01*
X386474Y249683D01*
X385573Y249163D01*
X384837Y248427D01*
X384317Y247526D01*
X384047Y246520D01*
Y245480D01*
X384317Y244474D01*
X384837Y243573D01*
X385573Y242837D01*
X386474Y242317D01*
X387480Y242047D01*
X388520D01*
X389526Y242317D01*
X390427Y242837D01*
X391163Y243573D01*
X391683Y244474D01*
X391953Y245480D01*
Y246520D01*
X391683Y247526D01*
X391163Y248427D01*
X390427Y249163D01*
X389526Y249683D01*
X388520Y249953D01*
D02*
G37*
G36*
Y239953D02*
X387480D01*
X386474Y239683D01*
X385573Y239163D01*
X384837Y238427D01*
X384317Y237526D01*
X384047Y236520D01*
Y235480D01*
X384317Y234474D01*
X384837Y233573D01*
X385573Y232837D01*
X386474Y232317D01*
X387480Y232047D01*
X388520D01*
X389526Y232317D01*
X390427Y232837D01*
X391163Y233573D01*
X391683Y234474D01*
X391953Y235480D01*
Y236520D01*
X391683Y237526D01*
X391163Y238427D01*
X390427Y239163D01*
X389526Y239683D01*
X388520Y239953D01*
D02*
G37*
G36*
Y229953D02*
X387480D01*
X386474Y229683D01*
X385573Y229163D01*
X384837Y228427D01*
X384317Y227526D01*
X384047Y226520D01*
Y225480D01*
X384317Y224474D01*
X384837Y223573D01*
X385573Y222837D01*
X386474Y222317D01*
X387480Y222047D01*
X388520D01*
X389526Y222317D01*
X390427Y222837D01*
X391163Y223573D01*
X391683Y224474D01*
X391953Y225480D01*
Y226520D01*
X391683Y227526D01*
X391163Y228427D01*
X390427Y229163D01*
X389526Y229683D01*
X388520Y229953D01*
D02*
G37*
G36*
X261000Y236500D02*
X255579D01*
Y232063D01*
X261000D01*
Y236500D01*
D02*
G37*
G36*
X329500Y188500D02*
X323095D01*
Y180126D01*
X329500D01*
Y188500D01*
D02*
G37*
%LPD*%
D11*
X364700Y203900D02*
X373000D01*
X374500Y202400D01*
Y194500D02*
Y202400D01*
Y183300D02*
Y194500D01*
X266500Y332000D02*
X272800D01*
X281700Y340900D01*
X301600D01*
X309000Y333500D01*
X369000D01*
X309000D02*
Y385000D01*
X288000Y406000D02*
X309000Y385000D01*
X369000Y333500D02*
X376500Y341000D01*
X412500D01*
X415500Y338000D01*
Y335000D02*
Y338000D01*
X283500Y230500D02*
X288000Y226000D01*
X283500Y230500D02*
Y309000D01*
X286000Y311500D01*
X293800D01*
X300500Y318200D01*
Y324000D01*
X304500Y328000D01*
X345000D01*
X364500Y308500D01*
X376700D01*
X383500Y301700D01*
Y294000D02*
Y301700D01*
Y294000D02*
X386000Y291500D01*
X400800D01*
X418900Y309600D01*
Y337429D01*
X411500Y344829D02*
X418900Y337429D01*
X411500Y344829D02*
Y355500D01*
X388000Y256000D02*
X392508Y260508D01*
X407260D01*
X266740Y268992D02*
Y279340D01*
X260201Y311799D02*
X262500Y309500D01*
X260201Y311799D02*
Y332000D01*
X263000Y258008D02*
Y276614D01*
X262500Y277114D02*
X263000Y276614D01*
X262500Y277114D02*
Y289815D01*
X410000Y312685D02*
Y323400D01*
X409201Y324199D02*
X410000Y323400D01*
X409201Y324199D02*
Y335000D01*
X411000Y271492D02*
Y281700D01*
X410000Y282700D02*
X411000Y281700D01*
X410000Y282700D02*
Y293000D01*
X260000Y407500D02*
X282500D01*
X287000Y412000D01*
X291200D01*
X362700Y340500D01*
X402300Y407000D02*
X412000D01*
X407000Y227000D02*
X412500D01*
X406000Y228000D02*
X407000Y227000D01*
X406000Y228000D02*
Y249500D01*
X410500Y254000D01*
Y264500D01*
X409500D02*
X410500D01*
X388000Y286000D02*
X409500Y264500D01*
X261500Y225500D02*
X274700D01*
X282900Y217300D01*
X310200D01*
X327800Y234900D01*
Y300500D01*
X288000Y296000D02*
X296095Y304095D01*
Y310595D01*
X309000Y323500D01*
X369000D02*
X371500Y326000D01*
X388000D01*
X369000Y313500D02*
X380500D01*
X388000Y306000D01*
X288000Y286000D02*
Y289300D01*
X309000Y310300D01*
Y313500D01*
D14*
X368500Y183300D02*
D03*
X380500D02*
D03*
X374500D02*
D03*
D15*
Y194500D02*
D03*
D16*
X311500Y189000D02*
D03*
X330000D02*
D03*
D17*
X309000Y333500D02*
D03*
Y323500D02*
D03*
Y313500D02*
D03*
Y303500D02*
D03*
X369000Y333500D02*
D03*
Y323500D02*
D03*
Y313500D02*
D03*
Y303500D02*
D03*
X388000Y226000D02*
D03*
Y236000D02*
D03*
Y246000D02*
D03*
Y256000D02*
D03*
Y266000D02*
D03*
Y276000D02*
D03*
Y286000D02*
D03*
Y296000D02*
D03*
Y306000D02*
D03*
Y316000D02*
D03*
Y326000D02*
D03*
Y336000D02*
D03*
Y346000D02*
D03*
Y356000D02*
D03*
Y366000D02*
D03*
Y376000D02*
D03*
Y386000D02*
D03*
Y396000D02*
D03*
X288000Y406000D02*
D03*
Y396000D02*
D03*
Y386000D02*
D03*
Y376000D02*
D03*
Y366000D02*
D03*
Y356000D02*
D03*
Y346000D02*
D03*
Y336000D02*
D03*
Y326000D02*
D03*
Y316000D02*
D03*
Y306000D02*
D03*
Y296000D02*
D03*
Y286000D02*
D03*
Y276000D02*
D03*
Y266000D02*
D03*
Y256000D02*
D03*
Y246000D02*
D03*
Y236000D02*
D03*
D18*
X263000Y372500D02*
D03*
Y352500D02*
D03*
X411500Y355500D02*
D03*
Y375500D02*
D03*
D19*
X266500Y332000D02*
D03*
X260201D02*
D03*
X415500Y335000D02*
D03*
X409201D02*
D03*
D20*
X261500Y225500D02*
D03*
X412500Y227000D02*
D03*
X412000Y407000D02*
D03*
X260000Y407500D02*
D03*
D21*
X261500Y237000D02*
D03*
Y214000D02*
D03*
X412500Y238500D02*
D03*
Y215500D02*
D03*
X412000Y418500D02*
D03*
Y395500D02*
D03*
X260000Y396000D02*
D03*
Y419000D02*
D03*
D22*
X263000Y258008D02*
D03*
X259260Y268992D02*
D03*
X266740D02*
D03*
X411000Y271492D02*
D03*
X414740Y260508D02*
D03*
X407260D02*
D03*
D35*
X390800Y212000D02*
X394800Y216000D01*
X408000Y183300D02*
X412500Y187800D01*
X400200Y175500D02*
X408000Y183300D01*
X251800Y372500D02*
Y375300D01*
Y218200D02*
Y372500D01*
X330000Y189000D02*
X366100D01*
X368500Y183300D01*
X330000Y189000D02*
Y208000D01*
X334000Y212000D01*
X390800D01*
X369000Y227800D02*
Y303500D01*
Y227800D02*
X380800Y216000D01*
X394800D01*
X401300Y222500D01*
X419000D01*
X420000Y223500D01*
Y236500D01*
X418000Y238500D02*
X420000Y236500D01*
X412500Y238500D02*
X418000D01*
X256000Y214000D02*
X261500D01*
X251800Y218200D02*
X256000Y214000D01*
X251800Y375300D02*
X252500Y376000D01*
Y418000D01*
X251800Y372500D02*
X263000D01*
X252500Y418000D02*
X253500Y419000D01*
X260000D01*
X380500Y183300D02*
X408000D01*
X261500Y237000D02*
Y244400D01*
X258400Y247500D02*
X261500Y244400D01*
X258400Y247500D02*
Y263040D01*
X259260Y263900D01*
Y268992D01*
X261500Y237000D02*
X267500D01*
X284000Y220500D01*
X304000D01*
X309000Y225500D01*
Y303500D01*
X313725Y308225D01*
X334275D01*
X339000Y303500D01*
X369000D01*
X259260Y268992D02*
Y273600D01*
X255800Y277060D02*
X259260Y273600D01*
X255800Y277060D02*
Y335000D01*
X263000Y342200D01*
Y352500D01*
X268000D01*
X270400Y354900D01*
Y392000D01*
X266400Y396000D02*
X270400Y392000D01*
X260000Y396000D02*
X266400D01*
X412500Y238500D02*
X414740Y251740D01*
Y260508D01*
Y261300D01*
X421900Y268459D01*
Y369600D01*
X416000Y375500D02*
X421900Y369600D01*
X411500Y375500D02*
X416000D01*
X411500D02*
Y382500D01*
X388000Y406000D02*
X411500Y382500D01*
X388000Y406000D02*
X400500Y418500D01*
X412000D01*
X261500Y195500D02*
Y214000D01*
Y195500D02*
X268000Y189000D01*
X311500D01*
Y178300D02*
Y189000D01*
Y178300D02*
X314300Y175500D01*
X400200D01*
X412500Y187800D02*
Y215500D01*
X420000D01*
X425900Y221400D01*
Y389600D01*
X420000Y395500D02*
X425900Y389600D01*
X412000Y395500D02*
X420000D01*
D36*
X388000Y406000D02*
D03*
X288000Y226000D02*
D03*
D37*
X262500Y289815D02*
D03*
Y309500D02*
D03*
X410000Y293000D02*
D03*
Y312685D02*
D03*
D38*
X364700Y203900D02*
D03*
X266740Y279340D02*
D03*
X362700Y340500D02*
D03*
X402300Y407000D02*
D03*
X327800Y300500D02*
D03*
M02*
